<?xml version="1.0" encoding="utf-8"?>
<!-- Generator: Adobe Illustrator 24.1.2, SVG Export Plug-In . SVG Version: 6.00 Build 0)  -->
<svg version="1.1" id="chaSvgSave" xmlns="http://www.w3.org/2000/svg" xmlns:xlink="http://www.w3.org/1999/xlink" x="0px" y="0px"
	 viewBox="0 0 651 651" style="enable-background:new 0 0 651 651;" xml:space="preserve">
<style type="text/css">
	.st0{fill:#FFFFFF;}
	.st1{fill:#C2BFDC;}
	
		.st2{fill:url(#SVGID_1_);stroke:#000000;stroke-width:1.1588;stroke-linecap:round;stroke-linejoin:round;stroke-miterlimit:5.3711;}
	.st3{opacity:0.5;fill:#FFFFFF;enable-background:new    ;}
	
		.st4{fill:url(#SVGID_2_);stroke:#000000;stroke-width:1.1588;stroke-linecap:round;stroke-linejoin:round;stroke-miterlimit:5.3711;}
</style>
<g id="chaSvgClip" transform="translate(35.80500000000001,35.80500000000001), scale(1,1)">
	<g id="chaSvgMake" transform="">
		<g id="lcart_chara" transform="translate(0, 0), scale(1.15878,1.15878)">
		</g>
		<g id="lcart_deco_y" transform="translate(0, 0), scale(1.15878,1.15878)">
		</g>
		<g id="lcart_decox_y" transform="translate(0, 0), scale(1.15878,1.15878)">
		</g>
		<g id="lcart_decox2_y" transform="translate(0, 0), scale(1.15878,1.15878)">
		</g>
		<g id="lcart_wing_r" transform="translate(0, 0), scale(1.15878,1.15878)">
		</g>
		<g id="lcart_wingx_r" transform="translate(0, 0), scale(1.15878,1.15878)">
		</g>
		<g id="lcart_wingx2_r" transform="translate(0, 0), scale(1.15878,1.15878)">
		</g>
		<g id="lcart_hat_r" transform="translate(0, 0), scale(1.15878,1.15878)">
		</g>
		<g id="lcart_hatx_r" transform="translate(0, 0), scale(1.15878,1.15878)">
		</g>
		<g id="lcart_hairyoko" transform="scale(1.1587799787521362,1.1587799787521362)">
			<g id="x001" transform="translate(0, 0), scale(1, 1)">
			</g>
		</g>
		<g id="lcart_neck_r" transform="translate(0, 0), scale(1.15878,1.15878)">
		</g>
		<g id="lcart_outer_r" transform="translate(0, 0), scale(1.15878,1.15878)">
		</g>
		<g id="lcart_hairushiro" transform="scale(1.1587799787521362,1.1587799787521362)">
			<g id="x001_1_" transform="translate(0, 0), scale(1, 1)">
			</g>
		</g>
		<g id="lcart_mantle_r" transform="translate(0, 0), scale(1.15878,1.15878)">
		</g>
		<g id="lcart_deco_r" transform="translate(0, 0), scale(1.15878,1.15878)">
		</g>
		<g id="lcart_decox_r" transform="translate(0, 0), scale(1.15878,1.15878)">
		</g>
		<g id="lcart_decox2_r" transform="translate(0, 0), scale(1.15878,1.15878)">
		</g>
		<g id="lcart_sleeve2_r" transform="translate(0, 0), scale(1.15878,1.15878)">
		</g>
		<g id="lcart_sleeve_r" transform="translate(0, 0), scale(1.15878,1.15878)">
		</g>
		<g id="lcart_onep_r" transform="translate(0, 0), scale(1.15878,1.15878)">
		</g>
		<g id="lcart_topsx_r" transform="translate(0, 0), scale(1.15878,1.15878)">
		</g>
		<g id="lcart_tops_r" transform="translate(0, 0), scale(1.15878,1.15878)">
		</g>
		<g id="lcart_bottoms_r" transform="scale(1.1587799787521362,1.1587799787521362)">
		</g>
		<g id="lcart_bodypaint" transform="scale(1.1587799787521362,1.1587799787521362)">
			<g id="x001_3_" transform="translate(0, 0), scale(1, 1)">
			</g>
		</g>
		<g id="lcart_socks_r" transform="translate(0, 0), scale(1.15878,1.15878)">
		</g>
		<g id="lcart_shoes_f" transform="translate(0, 0), scale(1.15878,1.15878)">
		</g>
		<g id="lcart_socks_f" transform="translate(0, 0), scale(1.15878,1.15878)">
		</g>
		<g id="lcart_shoes_r" transform="translate(0, 0), scale(1.15878,1.15878)">
		</g>
		<g id="lcart_face_r" transform="translate(0, 0), scale(1.15878,1.15878)">
		</g>
		<g id="lcart_glove_r" transform="translate(0, 0), scale(1.15878,1.15878)">
		</g>
		<g id="lcart_glovex_r" transform="translate(0, 0), scale(1.15878,1.15878)">
		</g>
		<g id="lcart_sleeve_f" transform="translate(0, 0), scale(1.15878,1.15878)">
		</g>
		<g id="lcart_sleeve2_f" transform="translate(0, 0), scale(1.15878,1.15878)">
		</g>
		<g id="lcart_belt_r" transform="translate(0, 0), scale(1.15878,1.15878)">
		</g>
		<g id="lcart_inner" transform="translate(0, 0), scale(1.15878,1.15878)">
		</g>
		<g id="lcart_bottoms_f" transform="scale(1.1587799787521362,1.1587799787521362)">
			<g id="x001_4_" transform="translate(0, 0), scale(1, 1)">
			</g>
		</g>
		<g id="lcart_tops_f" transform="translate(0, 0), scale(1.15878,1.15878)">
			<g id="x001_5_" transform="translate(0, 0), scale(1, 1)">
			</g>
		</g>
		<g id="lcart_topsx_f" transform="translate(0, 0), scale(1.15878,1.15878)">
		</g>
		<g id="lcart_bottoms_y" transform="scale(1.1587799787521362,1.1587799787521362)">
		</g>
		<g id="lcart_onep_f" transform="translate(0, 0), scale(1.15878,1.15878)">
		</g>
		<g id="lcart_belt_f" transform="translate(0, 0), scale(1.15878,1.15878)">
		</g>
		<g id="lcart_outer_f" transform="translate(0, 0), scale(1.15878,1.15878)">
		</g>
		<g id="lcart_mantle_f" transform="translate(0, 0), scale(1.15878,1.15878)">
			<g id="x001_6_" transform="translate(0, 0), scale(1, 1)">
			</g>
		</g>
		<g id="lcart_animal_r" transform="translate(0, 0), scale(1.15878,1.15878)">
		</g>
		<g id="lcart_ear" transform="scale(1.1587799787521362,1.1587799787521362)">
			<g id="x001_7_" transform="translate(0, 0), scale(1, 1)">
			</g>
		</g>
		<g id="lcart_neck_y" transform="translate(0, 0), scale(1.15878,1.15878)">
		</g>
		<g id="lcart_facepaint" transform="scale(1.1587799787521362,1.1587799787521362)">
			<g id="x001_8_" transform="translate(0, 0), scale(1, 1)">
			</g>
		</g>
		<g id="lcart_eye" transform="scale(1.1587799787521362,1.1587799787521362)">
			<g id="x136" transform="translate(0, 0) scale(1,1)">
				<g>
					<g>
						<g id="lefteye_28_">
							<g>
								<g>
									<path class="st0" d="M231.4,229.2c-1.9,2.8-14.8,7.8-23-0.6c-3.6-5.6-4.5-14.8-4.5-14.8l17.9-4.8l11.2,1.7
										C233.1,210.7,236.3,222.2,231.4,229.2z"/>
									<path class="st1" d="M234.3,218c0,0-6.9-2.4-14.8-1.8c-8,0.6-14.7,1.8-14.7,1.8l-0.4-4.6l13.9-4.8c0,0,13.6,0,14.9,2.1
										S234.3,218,234.3,218z"/>
								</g>
								<g>
									
										<linearGradient id="SVGID_1_" gradientUnits="userSpaceOnUse" x1="163.1299" y1="342.5724" x2="163.1299" y2="369.4431" gradientTransform="matrix(1.1588 0 0 -1.1588 31.9683 629.102)">
										<stop  offset="0" style="stop-color:#FFFFFF"/>
										<stop  offset="1" style="stop-color:#00B91C"/>
									</linearGradient>
									<path class="st2" d="M211.6,211c-0.8,2.1-1.2,3.9-1.2,6.4c0,8.1,5.5,14.7,10.5,14.7s10.7-6,10.7-14.1
										c0-2.5-0.6-4.8-1.3-6.9C230.3,211.2,223.3,206.2,211.6,211z"/>
								</g>
								<path d="M229.7,223.2c0,0-0.4-5.3-8-5.3s-10.4,6.6-10.4,6.6l0.1-13.6c0,0,2.9-0.4,9.9-0.7c5.5-0.2,8.8,0.6,8.8,0.6
									S231.4,222.1,229.7,223.2z"/>
								<ellipse class="st3" cx="221.4" cy="226.2" rx="5.5" ry="4.1"/>
								<ellipse class="st0" cx="227.5" cy="225.4" rx="1.4" ry="1.5"/>
								<path class="st0" d="M216,222.6c1.1,0.4,1.6,2.4,0.9,3.8c-2.4,1.5-6.2,2-6.3,1C210.5,226.3,214.5,222.1,216,222.6z"/>
								<path d="M203.7,208.5c10.5-2.6,21.9-3.6,22-3.6c10.1,3.8,12.1,7.1,13,8.3c-0.4-0.3-3.9-1.2-3.9-1.1c1.7,2.5,3.1,4.6,3.7,6.3
									c0,0-9.4-5.7-9.6-6l0,0c-10.1-1.6-21.7,0.5-24.3,1.1c0.5,3.7,1.2,8.2,2.7,13.1c-6-4.1-9.5-15.8-9.5-15.8
									S201.4,208.9,203.7,208.5z"/>
								<path d="M224,206.7c0.3,0,4.4-2.7,5.2-7.3c-2.7,2.3-10.6,6.5-11.9,6.7C219.4,206.7,224,206.7,224,206.7z"/>
							</g>
						</g>
					</g>
					<g id="lefteye_19_">
						<g id="lefteye_23_">
							<g>
								<g>
									<path class="st0" d="M268.6,229.2c1.9,2.8,14.8,7.8,23-0.6c3.6-5.6,4.5-14.8,4.5-14.8l-17.9-4.8l-11.2,1.7
										C266.9,210.7,263.7,222.2,268.6,229.2z"/>
									<path class="st1" d="M265.7,218c0,0,6.9-2.4,14.8-1.8c8,0.6,14.7,1.8,14.7,1.8l0.4-4.6l-13.9-4.8c0,0-13.6,0-14.9,2.1
										S265.7,218,265.7,218z"/>
								</g>
								<g>
									
										<linearGradient id="SVGID_2_" gradientUnits="userSpaceOnUse" x1="213.1825" y1="342.5724" x2="213.1825" y2="369.4431" gradientTransform="matrix(1.1588 0 0 -1.1588 31.9683 629.102)">
										<stop  offset="0" style="stop-color:#FFFFFF"/>
										<stop  offset="1" style="stop-color:#00B91C"/>
									</linearGradient>
									<path class="st4" d="M288.4,211c0.8,2.1,1.2,3.9,1.2,6.4c0,8.1-5.5,14.7-10.5,14.7s-10.7-6-10.7-14.1
										c0-2.5,0.6-4.8,1.3-6.9C269.7,211.2,276.7,206.2,288.4,211z"/>
								</g>
								<path d="M270.3,223.2c0,0,0.4-5.3,8-5.3s10.4,6.6,10.4,6.6l-0.1-13.6c0,0-2.9-0.4-9.9-0.7c-5.5-0.2-8.8,0.6-8.8,0.6
									S268.6,222.1,270.3,223.2z"/>
								<ellipse class="st3" cx="278.6" cy="226.2" rx="5.5" ry="4.1"/>
								<ellipse class="st0" cx="284.6" cy="225.4" rx="1.4" ry="1.5"/>
								<path class="st0" d="M273.1,222.6c1.1,0.4,1.6,2.4,0.9,3.8c-2.4,1.5-6.2,2-6.3,1C267.7,226.3,271.6,222.1,273.1,222.6z"/>
								<path d="M296.3,208.5c-10.5-2.6-21.9-3.6-22-3.6c-10.1,3.8-12.1,7.1-13,8.3c0.4-0.3,3.9-1.2,3.9-1.1
									c-1.7,2.5-3.1,4.6-3.7,6.3c0,0,9.4-5.7,9.6-6l0,0c10.1-1.6,21.7,0.5,24.3,1.1c-0.5,3.7-1.2,8.2-2.7,13.1
									c6-4.1,9.5-15.8,9.5-15.8S298.6,208.9,296.3,208.5z"/>
								<path d="M276,206.7c-0.3,0-4.4-2.7-5.2-7.3c2.7,2.3,10.6,6.5,11.9,6.7C280.6,206.7,276,206.7,276,206.7z"/>
							</g>
						</g>
					</g>
				</g>
			</g>
		</g>
		<g id="lcart_hige" transform="translate(0, 0), scale(1.15878,1.15878)">
		</g>
		<g id="lcart_glass_r" transform="translate(0, 0), scale(1.15878,1.15878)">
		</g>
		<g id="lcart_glassx_r" transform="translate(0, 0), scale(1.15878,1.15878)">
		</g>
		<g id="lcart_glove_f" transform="translate(0, 0), scale(1.15878,1.15878)">
		</g>
		<g id="lcart_glovex_f" transform="translate(0, 0), scale(1.15878,1.15878)">
		</g>
		<g id="lcart_earring" transform="translate(0, 0), scale(1.15878,1.15878)">
		</g>
		<g id="lcart_neck_f" transform="translate(0, 0), scale(1.15878,1.15878)">
		</g>
		<g id="lcart_glass_f" transform="translate(0, 0), scale(1.15878,1.15878)">
		</g>
		<g id="lcart_glassx_f" transform="translate(0, 0), scale(1.15878,1.15878)">
		</g>
		<g id="lcart_hairmae_r" transform="scale(1.1587799787521362,1.1587799787521362)">
		</g>
		<g id="lcart_momiage_r" transform="scale(1.1587799787521362,1.1587799787521362)">
			<g id="x001_10_" transform="translate(0, 0), scale(1, 1)">
			</g>
		</g>
		<g id="lcart_momiagex_r" transform="scale(1.1587799787521362,1.1587799787521362)">
			<g id="x001_11_" transform="translate(0, 0), scale(1, 1)">
			</g>
		</g>
		<g id="lcart_hairmae_f" transform="scale(1.1587799787521362,1.1587799787521362)">
			<g id="x001_12_" transform="translate(0, 0), scale(1, 1)">
			</g>
		</g>
		<g id="lcart_momiage_f" transform="scale(1.1587799787521362,1.1587799787521362)">
		</g>
		<g id="lcart_momiagex_f" transform="scale(1.1587799787521362,1.1587799787521362)">
		</g>
		<g id="lcart_mesh" transform="scale(1.1587799787521362,1.1587799787521362)">
			<g id="x001_13_" transform="translate(0, 0), scale(1, 1)">
			</g>
		</g>
		<g id="lcart_meshx" transform="scale(1.1587799787521362,1.1587799787521362)">
			<g id="x001_14_" transform="translate(0, 0), scale(1, 1)">
			</g>
		</g>
		<g id="lcart_eyeblow" transform="scale(1.1587799787521362,1.1587799787521362)">
			<g id="x002_2_" transform="translate(0, 0), scale(1, 1)">
				<g>
					<path d="M213.9,194.2c0,0,13.2-2.6,26,3C235.5,189.4,220.2,188.2,213.9,194.2z"/>
					<path d="M286.1,194.2c0,0-13.2-2.6-26,3C264.5,189.4,279.8,188.2,286.1,194.2z"/>
				</g>
			</g>
		</g>
		<g id="lcart_mantle_y" transform="translate(0, 0), scale(1.15878,1.15878)">
		</g>
		<g id="lcart_glass_y" transform="translate(0, 0), scale(1.15878,1.15878)">
		</g>
		<g id="lcart_glassx_y" transform="translate(0, 0), scale(1.15878,1.15878)">
		</g>
		<g id="lcart_animal_f" transform="translate(0, 0), scale(1.15878,1.15878)">
		</g>
		<g id="lcart_hat_f" transform="translate(0, 0), scale(1.15878,1.15878)">
		</g>
		<g id="lcart_hatx_f" transform="translate(0, 0), scale(1.15878,1.15878)">
		</g>
		<g id="lcart_ahoge" transform="translate(0, 0), scale(1.15878,1.15878)">
		</g>
		<g id="lcart_base_f" transform="translate(0, 0), scale(1.15878,1.15878)">
		</g>
		<g id="lcart_left" transform="translate(0, 0), scale(1.15878,1.15878)">
		</g>
		<g id="lcart_right" transform="translate(0, 0), scale(1.15878,1.15878)">
		</g>
		<g id="lcart_wing_f" transform="translate(0, 0), scale(1.15878,1.15878)">
		</g>
		<g id="lcart_wingx_f" transform="translate(0, 0), scale(1.15878,1.15878)">
		</g>
		<g id="lcart_wingx2_f" transform="translate(0, 0), scale(1.15878,1.15878)">
		</g>
		<g id="lcart_deco_f" transform="translate(0, 0), scale(1.15878,1.15878)">
		</g>
		<g id="lcart_decox_f" transform="translate(0, 0), scale(1.15878,1.15878)">
		</g>
		<g id="lcart_decox2_f" transform="translate(0, 0), scale(1.15878,1.15878)">
		</g>
		<g id="lcart_option" transform="translate(0, 0), scale(1.15878,1.15878)">
		</g>
	</g>
</g>
</svg>
