<?xml version="1.0" encoding="utf-8"?>
<!-- Generator: Adobe Illustrator 24.1.2, SVG Export Plug-In . SVG Version: 6.00 Build 0)  -->
<svg version="1.1" id="chaSvgSave" xmlns="http://www.w3.org/2000/svg" xmlns:xlink="http://www.w3.org/1999/xlink" x="0px" y="0px"
	 viewBox="0 0 651 651" style="enable-background:new 0 0 651 651;" xml:space="preserve">
<style type="text/css">
	.st0{fill:#FFFFFF;}
	.st1{fill:#C2BFDC;}
	.st2{fill:url(#SVGID_1_);stroke:#000000;stroke-width:0.5794;stroke-miterlimit:11.5878;}
	.st3{opacity:0.5;fill:#FFFFFE;enable-background:new    ;}
	.st4{fill:#FFFFFE;}
	.st5{fill:url(#SVGID_2_);stroke:#000000;stroke-width:0.5794;stroke-miterlimit:11.5878;}
</style>
<g id="chaSvgClip" transform="translate(35.80500000000001,35.80500000000001), scale(1,1)">
	<g id="chaSvgMake" transform="">
		<g id="lcart_chara" transform="translate(0, 0), scale(1.15878,1.15878)">
		</g>
		<g id="lcart_deco_y" transform="translate(0, 0), scale(1.15878,1.15878)">
		</g>
		<g id="lcart_decox_y" transform="translate(0, 0), scale(1.15878,1.15878)">
		</g>
		<g id="lcart_decox2_y" transform="translate(0, 0), scale(1.15878,1.15878)">
		</g>
		<g id="lcart_wing_r" transform="translate(0, 0), scale(1.15878,1.15878)">
		</g>
		<g id="lcart_wingx_r" transform="translate(0, 0), scale(1.15878,1.15878)">
		</g>
		<g id="lcart_wingx2_r" transform="translate(0, 0), scale(1.15878,1.15878)">
		</g>
		<g id="lcart_hat_r" transform="translate(0, 0), scale(1.15878,1.15878)">
		</g>
		<g id="lcart_hatx_r" transform="translate(0, 0), scale(1.15878,1.15878)">
		</g>
		<g id="lcart_hairyoko" transform="scale(1.1587799787521362,1.1587799787521362)">
			<g id="x001" transform="translate(0, 0), scale(1, 1)">
			</g>
		</g>
		<g id="lcart_neck_r" transform="translate(0, 0), scale(1.15878,1.15878)">
		</g>
		<g id="lcart_outer_r" transform="translate(0, 0), scale(1.15878,1.15878)">
		</g>
		<g id="lcart_hairushiro" transform="scale(1.1587799787521362,1.1587799787521362)">
			<g id="x001_1_" transform="translate(0, 0), scale(1, 1)">
			</g>
		</g>
		<g id="lcart_mantle_r" transform="translate(0, 0), scale(1.15878,1.15878)">
		</g>
		<g id="lcart_deco_r" transform="translate(0, 0), scale(1.15878,1.15878)">
		</g>
		<g id="lcart_decox_r" transform="translate(0, 0), scale(1.15878,1.15878)">
		</g>
		<g id="lcart_decox2_r" transform="translate(0, 0), scale(1.15878,1.15878)">
		</g>
		<g id="lcart_sleeve2_r" transform="translate(0, 0), scale(1.15878,1.15878)">
		</g>
		<g id="lcart_sleeve_r" transform="translate(0, 0), scale(1.15878,1.15878)">
		</g>
		<g id="lcart_onep_r" transform="translate(0, 0), scale(1.15878,1.15878)">
		</g>
		<g id="lcart_topsx_r" transform="translate(0, 0), scale(1.15878,1.15878)">
		</g>
		<g id="lcart_tops_r" transform="translate(0, 0), scale(1.15878,1.15878)">
		</g>
		<g id="lcart_bottoms_r" transform="scale(1.1587799787521362,1.1587799787521362)">
		</g>
		<g id="lcart_bodypaint" transform="scale(1.1587799787521362,1.1587799787521362)">
			<g id="x001_3_" transform="translate(0, 0), scale(1, 1)">
			</g>
		</g>
		<g id="lcart_socks_r" transform="translate(0, 0), scale(1.15878,1.15878)">
		</g>
		<g id="lcart_shoes_f" transform="translate(0, 0), scale(1.15878,1.15878)">
		</g>
		<g id="lcart_socks_f" transform="translate(0, 0), scale(1.15878,1.15878)">
		</g>
		<g id="lcart_shoes_r" transform="translate(0, 0), scale(1.15878,1.15878)">
		</g>
		<g id="lcart_face_r" transform="translate(0, 0), scale(1.15878,1.15878)">
		</g>
		<g id="lcart_glove_r" transform="translate(0, 0), scale(1.15878,1.15878)">
		</g>
		<g id="lcart_glovex_r" transform="translate(0, 0), scale(1.15878,1.15878)">
		</g>
		<g id="lcart_sleeve_f" transform="translate(0, 0), scale(1.15878,1.15878)">
		</g>
		<g id="lcart_sleeve2_f" transform="translate(0, 0), scale(1.15878,1.15878)">
		</g>
		<g id="lcart_belt_r" transform="translate(0, 0), scale(1.15878,1.15878)">
		</g>
		<g id="lcart_inner" transform="translate(0, 0), scale(1.15878,1.15878)">
		</g>
		<g id="lcart_bottoms_f" transform="scale(1.1587799787521362,1.1587799787521362)">
			<g id="x001_4_" transform="translate(0, 0), scale(1, 1)">
			</g>
		</g>
		<g id="lcart_tops_f" transform="translate(0, 0), scale(1.15878,1.15878)">
			<g id="x001_5_" transform="translate(0, 0), scale(1, 1)">
			</g>
		</g>
		<g id="lcart_topsx_f" transform="translate(0, 0), scale(1.15878,1.15878)">
		</g>
		<g id="lcart_bottoms_y" transform="scale(1.1587799787521362,1.1587799787521362)">
		</g>
		<g id="lcart_onep_f" transform="translate(0, 0), scale(1.15878,1.15878)">
		</g>
		<g id="lcart_belt_f" transform="translate(0, 0), scale(1.15878,1.15878)">
		</g>
		<g id="lcart_outer_f" transform="translate(0, 0), scale(1.15878,1.15878)">
		</g>
		<g id="lcart_mantle_f" transform="translate(0, 0), scale(1.15878,1.15878)">
			<g id="x001_6_" transform="translate(0, 0), scale(1, 1)">
			</g>
		</g>
		<g id="lcart_animal_r" transform="translate(0, 0), scale(1.15878,1.15878)">
		</g>
		<g id="lcart_ear" transform="scale(1.1587799787521362,1.1587799787521362)">
			<g id="x001_7_" transform="translate(0, 0), scale(1, 1)">
			</g>
		</g>
		<g id="lcart_neck_y" transform="translate(0, 0), scale(1.15878,1.15878)">
		</g>
		<g id="lcart_facepaint" transform="scale(1.1587799787521362,1.1587799787521362)">
			<g id="x001_8_" transform="translate(0, 0), scale(1, 1)">
			</g>
		</g>
		<g id="lcart_eye" transform="scale(1.1587799787521362,1.1587799787521362)">
			<g id="x115" transform="translate(0, 0) scale(1,1)">
				<g>
					<g>
						<g>
							<path class="st0" d="M233.5,210.7c0,0,3.3,4.9,2.4,10.9c-0.9,6-5.5,10.2-5.5,10.2s-6.4,1.6-11.1,0.9c-4.6-0.7-8.6-3-8.6-3
								s-3.4-1.9-5.6-5.8c-1.8-6.4-1.8-14.8,6-16.9C218.9,204.9,229.8,205,233.5,210.7z"/>
							<path class="st1" d="M211.1,207c7.8-2.1,18.7-1.9,22.4,3.7c0,0,1.4,2,2.1,5.1c-10.5-3.4-22.9-1.2-31.1,5.6
								C203.4,215.4,204.3,208.8,211.1,207z"/>
						</g>
						<g>
							
								<linearGradient id="SVGID_1_" gradientUnits="userSpaceOnUse" x1="164.2519" y1="343.5683" x2="164.2519" y2="369.0603" gradientTransform="matrix(1.1588 0 0 -1.1588 31.9683 629.102)">
								<stop  offset="0" style="stop-color:#FFFFFF"/>
								<stop  offset="1" style="stop-color:#FF1717"/>
							</linearGradient>
							<path class="st2" d="M229.4,210.6c0,0,3.5,3.4,3.3,9.1c-0.3,5.7-3.1,9.5-6.2,10.6c-3.6,1.4-9.1,0.2-10.1-0.6
								c-1.9-1.6-4.3-4.1-4.5-9.9c-0.2-6.7,3.5-10,3.5-10S224.1,207.5,229.4,210.6z"/>
							<ellipse class="st3" cx="222.2" cy="228.4" rx="5.4" ry="2.8"/>
							<path d="M215.3,209.5c0,0,8.7-2.4,14.1,0.8c0,0,3.5,3.4,3.3,9.1c-0.1,1.6-0.4,3.1-0.8,4.4c-1.9-3.8-6.6-5.8-10.8-5.1
								c-3.3,0.8-6.3,2.2-8.9,4.1c-0.2-0.9-0.4-2-0.4-3.2C211.6,212.8,215.3,209.5,215.3,209.5z"/>
						</g>
						<ellipse cx="223.1" cy="220" rx="3.6" ry="4.6"/>
						<ellipse class="st4" cx="215.9" cy="214.4" rx="3.4" ry="4"/>
						<g>
							<path d="M230.4,231.8c0,0-3,2.3-9.3,2.1c-8.2-0.2-10.3-4.2-10.3-4.2s6.3,2.5,10.6,2.5C225.7,232.2,230.4,231.8,230.4,231.8z"
								/>
							<g>
								<path d="M237.4,214.6c0,0-2.8-7.9-8.5-10.3c-3.1-0.9-13-3.1-23.5,3c-4.3,4.6-4.8,12.6-4.8,12.6s3.9,4.8,5.4,5.7
									c-1.5-3-1.8-6.3-1-8.8c0.7-2.5,4.5-6.7,6.1-7.3s12.7-2.8,17.1-1.3C232.5,209.5,237.4,214.6,237.4,214.6z"/>
								<path d="M226.5,205.7c0,0,7.8,1.9,10.5,4.3c-0.1-1.3-6.4-6.1-10.9-6.3C226.5,205.1,226.5,205.7,226.5,205.7z"/>
								<path d="M205.9,208.5c0,0-3.6,1.6-5.1,3.2c1.2-2.5,5.5-5.4,7.9-6.1C208.8,207,205.9,208.5,205.9,208.5z"/>
							</g>
						</g>
						<path d="M235.6,204.6c0,0-5.5-4.9-19.1-4C219.8,198,233.2,199.3,235.6,204.6z"/>
					</g>
					<g id="lefteye_42_">
						<g>
							<path class="st0" d="M266.5,210.7c0,0-3.3,4.9-2.4,10.9s5.5,10.2,5.5,10.2s6.4,1.6,11.1,0.9c4.6-0.7,8.6-3,8.6-3
								s3.4-1.9,5.6-5.8c1.8-6.4,1.8-14.8-6-16.9S270.2,205,266.5,210.7z"/>
							<path class="st1" d="M288.9,207c-7.8-2.1-18.7-1.9-22.4,3.7c0,0-1.4,2-2.1,5.1c10.5-3.4,22.9-1.2,31.1,5.6
								C296.6,215.4,295.7,208.8,288.9,207z"/>
						</g>
						<g>
							
								<linearGradient id="SVGID_2_" gradientUnits="userSpaceOnUse" x1="212.0605" y1="343.5683" x2="212.0605" y2="369.0603" gradientTransform="matrix(1.1588 0 0 -1.1588 31.9683 629.102)">
								<stop  offset="0" style="stop-color:#FFFFFF"/>
								<stop  offset="1" style="stop-color:#FF1717"/>
							</linearGradient>
							<path class="st5" d="M270.6,210.6c0,0-3.5,3.4-3.3,9.1c0.3,5.7,3.1,9.5,6.2,10.6c3.6,1.4,9.1,0.2,10.1-0.6
								c1.9-1.6,4.3-4.1,4.5-9.9c0.2-6.7-3.5-10-3.5-10S275.9,207.5,270.6,210.6z"/>
							<ellipse class="st3" cx="277.8" cy="228.4" rx="5.4" ry="2.8"/>
							<path d="M284.7,209.5c0,0-8.7-2.4-14.1,0.8c0,0-3.5,3.4-3.3,9.1c0.1,1.6,0.4,3.1,0.8,4.4c1.9-3.8,6.6-5.8,10.8-5.1
								c3.3,0.8,6.4,2.2,8.9,4.1c0.2-0.9,0.4-2,0.4-3.2C288.4,212.8,284.7,209.5,284.7,209.5z"/>
						</g>
						<ellipse cx="276.9" cy="220" rx="3.6" ry="4.6"/>
						<ellipse class="st4" cx="271.1" cy="214.4" rx="3.4" ry="4"/>
						<g>
							<path d="M269.6,231.8c0,0,3,2.3,9.3,2.1c8.1-0.2,10.3-4.2,10.3-4.2s-6.3,2.5-10.6,2.5C274.3,232.2,269.6,231.8,269.6,231.8z"
								/>
							<g>
								<path d="M262.6,214.6c0,0,2.8-7.9,8.5-10.3c3.1-0.9,13-3.1,23.5,3c4.3,4.6,4.8,12.6,4.8,12.6s-3.9,4.8-5.4,5.7
									c1.5-3,1.8-6.3,1-8.8c-0.7-2.5-4.5-6.7-6.1-7.3s-12.7-2.8-17.1-1.3C267.5,209.5,262.6,214.6,262.6,214.6z"/>
								<path d="M273.5,205.7c0,0-7.8,1.9-10.5,4.3c0.2-1.3,6.4-6.1,10.9-6.3C273.5,205.1,273.5,205.7,273.5,205.7z"/>
								<path d="M294.1,208.5c0,0,3.6,1.6,5.1,3.2c-1.2-2.5-5.5-5.4-7.9-6.1C291.2,207,294.1,208.5,294.1,208.5z"/>
							</g>
						</g>
						<path d="M264.4,204.6c0,0,5.5-4.9,19.1-4C280.2,198,266.8,199.3,264.4,204.6z"/>
					</g>
				</g>
			</g>
		</g>
		<g id="lcart_hige" transform="translate(0, 0), scale(1.15878,1.15878)">
		</g>
		<g id="lcart_glass_r" transform="translate(0, 0), scale(1.15878,1.15878)">
		</g>
		<g id="lcart_glassx_r" transform="translate(0, 0), scale(1.15878,1.15878)">
		</g>
		<g id="lcart_glove_f" transform="translate(0, 0), scale(1.15878,1.15878)">
		</g>
		<g id="lcart_glovex_f" transform="translate(0, 0), scale(1.15878,1.15878)">
		</g>
		<g id="lcart_earring" transform="translate(0, 0), scale(1.15878,1.15878)">
		</g>
		<g id="lcart_neck_f" transform="translate(0, 0), scale(1.15878,1.15878)">
		</g>
		<g id="lcart_glass_f" transform="translate(0, 0), scale(1.15878,1.15878)">
		</g>
		<g id="lcart_glassx_f" transform="translate(0, 0), scale(1.15878,1.15878)">
		</g>
		<g id="lcart_hairmae_r" transform="scale(1.1587799787521362,1.1587799787521362)">
		</g>
		<g id="lcart_momiage_r" transform="scale(1.1587799787521362,1.1587799787521362)">
			<g id="x001_10_" transform="translate(0, 0), scale(1, 1)">
			</g>
		</g>
		<g id="lcart_momiagex_r" transform="scale(1.1587799787521362,1.1587799787521362)">
			<g id="x001_11_" transform="translate(0, 0), scale(1, 1)">
			</g>
		</g>
		<g id="lcart_hairmae_f" transform="scale(1.1587799787521362,1.1587799787521362)">
			<g id="x001_12_" transform="translate(0, 0), scale(1, 1)">
			</g>
		</g>
		<g id="lcart_momiage_f" transform="scale(1.1587799787521362,1.1587799787521362)">
		</g>
		<g id="lcart_momiagex_f" transform="scale(1.1587799787521362,1.1587799787521362)">
		</g>
		<g id="lcart_mesh" transform="scale(1.1587799787521362,1.1587799787521362)">
			<g id="x001_13_" transform="translate(0, 0), scale(1, 1)">
			</g>
		</g>
		<g id="lcart_meshx" transform="scale(1.1587799787521362,1.1587799787521362)">
			<g id="x001_14_" transform="translate(0, 0), scale(1, 1)">
			</g>
		</g>
		<g id="lcart_eyeblow" transform="scale(1.1587799787521362,1.1587799787521362)">
			<g id="x002_2_" transform="translate(0, 0), scale(1, 1)">
				<g>
					<path d="M213.9,194.2c0,0,13.2-2.6,26,3C235.5,189.4,220.2,188.2,213.9,194.2z"/>
					<path d="M286.1,194.2c0,0-13.2-2.6-26,3C264.5,189.4,279.8,188.2,286.1,194.2z"/>
				</g>
			</g>
		</g>
		<g id="lcart_mantle_y" transform="translate(0, 0), scale(1.15878,1.15878)">
		</g>
		<g id="lcart_glass_y" transform="translate(0, 0), scale(1.15878,1.15878)">
		</g>
		<g id="lcart_glassx_y" transform="translate(0, 0), scale(1.15878,1.15878)">
		</g>
		<g id="lcart_animal_f" transform="translate(0, 0), scale(1.15878,1.15878)">
		</g>
		<g id="lcart_hat_f" transform="translate(0, 0), scale(1.15878,1.15878)">
		</g>
		<g id="lcart_hatx_f" transform="translate(0, 0), scale(1.15878,1.15878)">
		</g>
		<g id="lcart_ahoge" transform="translate(0, 0), scale(1.15878,1.15878)">
		</g>
		<g id="lcart_base_f" transform="translate(0, 0), scale(1.15878,1.15878)">
		</g>
		<g id="lcart_left" transform="translate(0, 0), scale(1.15878,1.15878)">
		</g>
		<g id="lcart_right" transform="translate(0, 0), scale(1.15878,1.15878)">
		</g>
		<g id="lcart_wing_f" transform="translate(0, 0), scale(1.15878,1.15878)">
		</g>
		<g id="lcart_wingx_f" transform="translate(0, 0), scale(1.15878,1.15878)">
		</g>
		<g id="lcart_wingx2_f" transform="translate(0, 0), scale(1.15878,1.15878)">
		</g>
		<g id="lcart_deco_f" transform="translate(0, 0), scale(1.15878,1.15878)">
		</g>
		<g id="lcart_decox_f" transform="translate(0, 0), scale(1.15878,1.15878)">
		</g>
		<g id="lcart_decox2_f" transform="translate(0, 0), scale(1.15878,1.15878)">
		</g>
		<g id="lcart_option" transform="translate(0, 0), scale(1.15878,1.15878)">
		</g>
	</g>
</g>
</svg>
