<?xml version="1.0" encoding="utf-8"?>
<!-- Generator: Adobe Illustrator 24.1.2, SVG Export Plug-In . SVG Version: 6.00 Build 0)  -->
<svg version="1.1" id="chaSvgSave" xmlns="http://www.w3.org/2000/svg" xmlns:xlink="http://www.w3.org/1999/xlink" x="0px" y="0px"
	 viewBox="0 0 651 651" style="enable-background:new 0 0 651 651;" xml:space="preserve">
<style type="text/css">
	.st0{fill:#FCFFFF;}
	.st1{fill:#C2BFDC;}
	.st2{fill:url(#SVGID_1_);}
	.st3{opacity:0.8;fill:url(#SVGID_2_);enable-background:new    ;}
	.st4{opacity:0.5;fill:#FFFFFF;enable-background:new    ;}
	.st5{fill:#FFFFFF;}
	.st6{fill:url(#SVGID_3_);}
	.st7{opacity:0.8;fill:url(#SVGID_4_);enable-background:new    ;}
</style>
<g id="chaSvgClip" transform="translate(35.80500000000001,35.80500000000001), scale(1,1)">
	<g id="chaSvgMake" transform="">
		<g id="lcart_chara" transform="translate(0, 0), scale(1.15878,1.15878)">
		</g>
		<g id="lcart_deco_y" transform="translate(0, 0), scale(1.15878,1.15878)">
		</g>
		<g id="lcart_decox_y" transform="translate(0, 0), scale(1.15878,1.15878)">
		</g>
		<g id="lcart_decox2_y" transform="translate(0, 0), scale(1.15878,1.15878)">
		</g>
		<g id="lcart_wing_r" transform="translate(0, 0), scale(1.15878,1.15878)">
		</g>
		<g id="lcart_wingx_r" transform="translate(0, 0), scale(1.15878,1.15878)">
		</g>
		<g id="lcart_wingx2_r" transform="translate(0, 0), scale(1.15878,1.15878)">
		</g>
		<g id="lcart_hat_r" transform="translate(0, 0), scale(1.15878,1.15878)">
		</g>
		<g id="lcart_hatx_r" transform="translate(0, 0), scale(1.15878,1.15878)">
		</g>
		<g id="lcart_hairyoko" transform="scale(1.1587799787521362,1.1587799787521362)">
			<g id="x001" transform="translate(0, 0), scale(1, 1)">
			</g>
		</g>
		<g id="lcart_neck_r" transform="translate(0, 0), scale(1.15878,1.15878)">
		</g>
		<g id="lcart_outer_r" transform="translate(0, 0), scale(1.15878,1.15878)">
		</g>
		<g id="lcart_hairushiro" transform="scale(1.1587799787521362,1.1587799787521362)">
			<g id="x001_1_" transform="translate(0, 0), scale(1, 1)">
			</g>
		</g>
		<g id="lcart_mantle_r" transform="translate(0, 0), scale(1.15878,1.15878)">
		</g>
		<g id="lcart_deco_r" transform="translate(0, 0), scale(1.15878,1.15878)">
		</g>
		<g id="lcart_decox_r" transform="translate(0, 0), scale(1.15878,1.15878)">
		</g>
		<g id="lcart_decox2_r" transform="translate(0, 0), scale(1.15878,1.15878)">
		</g>
		<g id="lcart_sleeve2_r" transform="translate(0, 0), scale(1.15878,1.15878)">
		</g>
		<g id="lcart_sleeve_r" transform="translate(0, 0), scale(1.15878,1.15878)">
		</g>
		<g id="lcart_onep_r" transform="translate(0, 0), scale(1.15878,1.15878)">
		</g>
		<g id="lcart_topsx_r" transform="translate(0, 0), scale(1.15878,1.15878)">
		</g>
		<g id="lcart_tops_r" transform="translate(0, 0), scale(1.15878,1.15878)">
		</g>
		<g id="lcart_bottoms_r" transform="scale(1.1587799787521362,1.1587799787521362)">
		</g>
		<g id="lcart_bodypaint" transform="scale(1.1587799787521362,1.1587799787521362)">
			<g id="x001_3_" transform="translate(0, 0), scale(1, 1)">
			</g>
		</g>
		<g id="lcart_socks_r" transform="translate(0, 0), scale(1.15878,1.15878)">
		</g>
		<g id="lcart_shoes_f" transform="translate(0, 0), scale(1.15878,1.15878)">
		</g>
		<g id="lcart_socks_f" transform="translate(0, 0), scale(1.15878,1.15878)">
		</g>
		<g id="lcart_shoes_r" transform="translate(0, 0), scale(1.15878,1.15878)">
		</g>
		<g id="lcart_face_r" transform="translate(0, 0), scale(1.15878,1.15878)">
		</g>
		<g id="lcart_glove_r" transform="translate(0, 0), scale(1.15878,1.15878)">
		</g>
		<g id="lcart_glovex_r" transform="translate(0, 0), scale(1.15878,1.15878)">
		</g>
		<g id="lcart_sleeve_f" transform="translate(0, 0), scale(1.15878,1.15878)">
		</g>
		<g id="lcart_sleeve2_f" transform="translate(0, 0), scale(1.15878,1.15878)">
		</g>
		<g id="lcart_belt_r" transform="translate(0, 0), scale(1.15878,1.15878)">
		</g>
		<g id="lcart_inner" transform="translate(0, 0), scale(1.15878,1.15878)">
		</g>
		<g id="lcart_bottoms_f" transform="scale(1.1587799787521362,1.1587799787521362)">
			<g id="x001_4_" transform="translate(0, 0), scale(1, 1)">
			</g>
		</g>
		<g id="lcart_tops_f" transform="translate(0, 0), scale(1.15878,1.15878)">
			<g id="x001_5_" transform="translate(0, 0), scale(1, 1)">
			</g>
		</g>
		<g id="lcart_topsx_f" transform="translate(0, 0), scale(1.15878,1.15878)">
		</g>
		<g id="lcart_bottoms_y" transform="scale(1.1587799787521362,1.1587799787521362)">
		</g>
		<g id="lcart_onep_f" transform="translate(0, 0), scale(1.15878,1.15878)">
		</g>
		<g id="lcart_belt_f" transform="translate(0, 0), scale(1.15878,1.15878)">
		</g>
		<g id="lcart_outer_f" transform="translate(0, 0), scale(1.15878,1.15878)">
		</g>
		<g id="lcart_mantle_f" transform="translate(0, 0), scale(1.15878,1.15878)">
			<g id="x001_6_" transform="translate(0, 0), scale(1, 1)">
			</g>
		</g>
		<g id="lcart_animal_r" transform="translate(0, 0), scale(1.15878,1.15878)">
		</g>
		<g id="lcart_ear" transform="scale(1.1587799787521362,1.1587799787521362)">
			<g id="x001_7_" transform="translate(0, 0), scale(1, 1)">
			</g>
		</g>
		<g id="lcart_neck_y" transform="translate(0, 0), scale(1.15878,1.15878)">
		</g>
		<g id="lcart_facepaint" transform="scale(1.1587799787521362,1.1587799787521362)">
			<g id="x001_8_" transform="translate(0, 0), scale(1, 1)">
			</g>
		</g>
		<g id="lcart_eye" transform="scale(1.1587799787521362,1.1587799787521362)">
			<g id="x112" transform="translate(0, 0) scale(1,1)">
				<g>
					<g>
						<g>
							<path class="st0" d="M235.4,215c0.2,1.7,0.4,5.8-0.4,9.2c-1.2,4.8-7.2,9.8-12.7,9.9c-5.5,0-13.3-1-16.2-4.2
								c-2.1-2.4-3.7-7.8-4.3-10.1C211.2,212.6,224.3,210.1,235.4,215z"/>
							<path class="st1" d="M219.4,204.9c14.4-2,15.8,9.7,15.8,9.7s0.1,0.4,0.2,1.1c-11.1-5-24.2-2.4-33.6,4.8
								c-0.2-0.8-0.4-1.3-0.4-1.3S205,206.9,219.4,204.9z"/>
						</g>
						<g>
							<path d="M236.4,214.2c-1.5-5.2-4.4-7.5-5.8-8.7c2.5,1.8,4.4,2.9,6,4.2c-2.5-3.8-5.2-6.3-10.7-7.9c-5.5-1.6-17.4,1.1-23.2,9
								c-5.9,7.9-5.7,11.3-5.7,11.3l2.5,0.3c0,0,1.5,5.2,6.8,7.7c-2.6-4-4-8.5-1.6-13.4c2.3-4.9,7.7-9.7,15.7-10
								C229.7,206.4,236.4,214.2,236.4,214.2z"/>
							<path d="M201.8,215.4c-0.7-0.4-3.6-3-4.8-5.7c4.2,0.8,8.3,0.8,8.3,0.8L201.8,215.4z"/>
						</g>
						<path d="M236.2,202.6c0,0-3.3-3-6.8-4c-3.7-0.5-10-0.3-11.2,0.1c2.7-1.5,10.1-1.5,13-1C234,198.3,236.2,202.6,236.2,202.6z"/>
						<g>
							<path d="M213.9,234.5c0.7,0,1.1-1.3,0.2-1.6C213.2,232.7,213.3,234.5,213.9,234.5z"/>
							<path d="M211.2,233.9c0.6,0.2,1.6-1,0.9-1.4C211.4,232,210.6,233.7,211.2,233.9z"/>
							<path d="M208.2,232.9c0.6,0.4,2-0.6,1.5-1.2C209.1,231.1,207.6,232.6,208.2,232.9z"/>
						</g>
						<path d="M220.7,207.8c3-0.2,9.9,2.2,11.8,9.9s-4.1,17.3-10.6,16.4c-6.4-0.8-9.4-6.3-10.3-10.9
							C210.6,218,211.8,208.3,220.7,207.8z"/>
						
							<linearGradient id="SVGID_1_" gradientUnits="userSpaceOnUse" x1="164.0755" y1="342.946" x2="164.0755" y2="367.6683" gradientTransform="matrix(1.1588 0 0 -1.1588 31.9683 629.102)">
							<stop  offset="0" style="stop-color:#FFFFFF"/>
							<stop  offset="1" style="stop-color:#FF1717;stop-opacity:0.8"/>
						</linearGradient>
						<path class="st2" d="M221,210.4c2.5-0.1,8,1.8,9.5,8s-3.3,13.9-8.5,13.3c-5.2-0.7-7.6-5.1-8.3-8.8
							C212.8,218.6,213.7,210.8,221,210.4z"/>
						
							<linearGradient id="SVGID_2_" gradientUnits="userSpaceOnUse" x1="171.8378" y1="354.6851" x2="150.8049" y2="354.6851" gradientTransform="matrix(1.1588 0 0 -1.1588 31.9683 629.102)">
							<stop  offset="0" style="stop-color:#FFFFFF"/>
							<stop  offset="1" style="stop-color:#FF1717;stop-opacity:0.8"/>
						</linearGradient>
						<path class="st3" d="M213.7,225.6c0,0-0.2-6.1,7.9-6.8s9.4,4,9.4,4s0.5-8.5-1.8-10.2c-0.8,2.4-5.5,4-8.5,3.8s-4.1-4.1-2.3-5.8
							C215.7,211.8,211.1,215.1,213.7,225.6z"/>
						<ellipse class="st4" cx="222.1" cy="228.8" rx="4.6" ry="3"/>
						
							<ellipse transform="matrix(0.8867 -0.4624 0.4624 0.8867 -73.0285 130.2429)" class="st5" cx="229.2" cy="214.1" rx="2.8" ry="3.5"/>
						
							<ellipse transform="matrix(0.9213 -0.3888 0.3888 0.9213 -72.0523 101.5494)" class="st5" cx="214.9" cy="228.8" rx="1.1" ry="1.3"/>
						<ellipse cx="223" cy="220.6" rx="4.9" ry="6.4"/>
						<ellipse class="st4" cx="223.2" cy="223.9" rx="3" ry="2.7"/>
						
							<ellipse transform="matrix(0.9213 -0.3888 0.3888 0.9213 -65.7677 104.2059)" class="st5" cx="224.6" cy="214.6" rx="1.1" ry="1.3"/>
						
							<ellipse transform="matrix(0.9216 -0.3882 0.3882 0.9216 -69.9279 105.0754)" class="st5" cx="225.1" cy="225.6" rx="1.1" ry="1.3"/>
					</g>
					<g id="lefteye_110_">
						<g>
							<path class="st0" d="M264.6,215c-0.2,1.7-0.4,5.8,0.4,9.2c1.2,4.8,7.2,9.8,12.7,9.9c5.5,0,13.3-1,16.2-4.2
								c2.1-2.4,3.7-7.8,4.3-10.1C288.8,212.6,275.7,210.1,264.6,215z"/>
							<path class="st1" d="M280.6,204.9c-14.4-2-15.8,9.7-15.8,9.7s-0.1,0.4-0.2,1.1c11.1-5,24.2-2.4,33.6,4.8
								c0.2-0.8,0.4-1.3,0.4-1.3S295,206.9,280.6,204.9z"/>
						</g>
						<g>
							<path d="M263.6,214.2c1.5-5.2,4.4-7.5,5.8-8.7c-2.5,1.8-4.4,2.9-6,4.2c2.5-3.8,5.2-6.3,10.7-7.9c5.5-1.6,17.4,1.1,23.2,9
								c5.9,7.9,5.7,11.3,5.7,11.3l-2.5,0.3c0,0-1.5,5.2-6.8,7.7c2.6-4,4-8.5,1.6-13.4s-7.7-9.7-15.7-10
								C270.3,206.4,263.6,214.2,263.6,214.2z"/>
							<path d="M298.2,215.4c0.7-0.4,3.6-3,4.8-5.7c-4.2,0.8-8.3,0.8-8.3,0.8L298.2,215.4z"/>
						</g>
						<path d="M263.8,202.6c0,0,3.3-3,6.8-4c3.7-0.5,10-0.3,11.2,0.1c-2.7-1.5-10.1-1.5-13-1C266,198.3,263.8,202.6,263.8,202.6z"/>
						<g>
							<path d="M286.1,234.5c-0.7,0-1.1-1.3-0.2-1.6C286.8,232.7,286.7,234.5,286.1,234.5z"/>
							<path d="M288.8,233.9c-0.6,0.2-1.6-1-0.9-1.4C288.6,232,289.4,233.7,288.8,233.9z"/>
							<path d="M291.8,232.9c-0.6,0.4-2-0.6-1.5-1.2C290.9,231.1,292.4,232.6,291.8,232.9z"/>
						</g>
						<path d="M279.3,207.8c-3.1-0.2-9.9,2.2-11.8,9.9s4.1,17.3,10.6,16.4c6.4-0.8,9.4-6.3,10.3-10.9
							C289.4,218,288.2,208.3,279.3,207.8z"/>
						
							<linearGradient id="SVGID_3_" gradientUnits="userSpaceOnUse" x1="212.2369" y1="342.946" x2="212.2369" y2="367.6683" gradientTransform="matrix(1.1588 0 0 -1.1588 31.9683 629.102)">
							<stop  offset="0" style="stop-color:#FFFFFF"/>
							<stop  offset="1" style="stop-color:#FF1717;stop-opacity:0.8"/>
						</linearGradient>
						<path class="st6" d="M279,210.4c-2.5-0.1-8,1.8-9.5,8s3.3,13.9,8.5,13.3c5.2-0.7,7.6-5.1,8.3-8.8
							C287.2,218.6,286.3,210.8,279,210.4z"/>
						
							<linearGradient id="SVGID_4_" gradientUnits="userSpaceOnUse" x1="220.2686" y1="354.6851" x2="199.2361" y2="354.6851" gradientTransform="matrix(1.1588 0 0 -1.1588 31.9683 629.102)">
							<stop  offset="0" style="stop-color:#FFFFFF"/>
							<stop  offset="1" style="stop-color:#FF1717;stop-opacity:0.8"/>
						</linearGradient>
						<path class="st7" d="M269.8,225.6c0,0-0.2-6.1,7.9-6.8s9.4,4,9.4,4s0.5-8.5-1.8-10.2c-0.8,2.4-5.5,4-8.5,3.8s-4.1-4.1-2.3-5.8
							C271.8,211.8,267.2,215.1,269.8,225.6z"/>
						<ellipse class="st4" cx="277.9" cy="228.8" rx="4.6" ry="3"/>
						
							<ellipse transform="matrix(0.8867 -0.4624 0.4624 0.8867 -66.6752 156.1857)" class="st5" cx="285.3" cy="214.1" rx="2.8" ry="3.5"/>
						
							<ellipse transform="matrix(0.9213 -0.3888 0.3888 0.9213 -67.6411 123.3627)" class="st5" cx="271" cy="228.8" rx="1.1" ry="1.3"/>
						<ellipse cx="277" cy="220.6" rx="4.9" ry="6.4"/>
						<ellipse class="st4" cx="277.3" cy="223.9" rx="3" ry="2.7"/>
						
							<ellipse transform="matrix(0.9214 -0.3886 0.3886 0.9214 -61.3382 125.9423)" class="st5" cx="280.7" cy="214.6" rx="1.1" ry="1.3"/>
						
							<ellipse transform="matrix(0.9215 -0.3884 0.3884 0.9215 -65.5523 126.9326)" class="st5" cx="281.2" cy="225.6" rx="1.1" ry="1.3"/>
					</g>
				</g>
			</g>
		</g>
		<g id="lcart_hige" transform="translate(0, 0), scale(1.15878,1.15878)">
		</g>
		<g id="lcart_glass_r" transform="translate(0, 0), scale(1.15878,1.15878)">
		</g>
		<g id="lcart_glassx_r" transform="translate(0, 0), scale(1.15878,1.15878)">
		</g>
		<g id="lcart_glove_f" transform="translate(0, 0), scale(1.15878,1.15878)">
		</g>
		<g id="lcart_glovex_f" transform="translate(0, 0), scale(1.15878,1.15878)">
		</g>
		<g id="lcart_earring" transform="translate(0, 0), scale(1.15878,1.15878)">
		</g>
		<g id="lcart_neck_f" transform="translate(0, 0), scale(1.15878,1.15878)">
		</g>
		<g id="lcart_glass_f" transform="translate(0, 0), scale(1.15878,1.15878)">
		</g>
		<g id="lcart_glassx_f" transform="translate(0, 0), scale(1.15878,1.15878)">
		</g>
		<g id="lcart_hairmae_r" transform="scale(1.1587799787521362,1.1587799787521362)">
		</g>
		<g id="lcart_momiage_r" transform="scale(1.1587799787521362,1.1587799787521362)">
			<g id="x001_10_" transform="translate(0, 0), scale(1, 1)">
			</g>
		</g>
		<g id="lcart_momiagex_r" transform="scale(1.1587799787521362,1.1587799787521362)">
			<g id="x001_11_" transform="translate(0, 0), scale(1, 1)">
			</g>
		</g>
		<g id="lcart_hairmae_f" transform="scale(1.1587799787521362,1.1587799787521362)">
			<g id="x001_12_" transform="translate(0, 0), scale(1, 1)">
			</g>
		</g>
		<g id="lcart_momiage_f" transform="scale(1.1587799787521362,1.1587799787521362)">
		</g>
		<g id="lcart_momiagex_f" transform="scale(1.1587799787521362,1.1587799787521362)">
		</g>
		<g id="lcart_mesh" transform="scale(1.1587799787521362,1.1587799787521362)">
			<g id="x001_13_" transform="translate(0, 0), scale(1, 1)">
			</g>
		</g>
		<g id="lcart_meshx" transform="scale(1.1587799787521362,1.1587799787521362)">
			<g id="x001_14_" transform="translate(0, 0), scale(1, 1)">
			</g>
		</g>
		<g id="lcart_eyeblow" transform="scale(1.1587799787521362,1.1587799787521362)">
			<g id="x002_2_" transform="translate(0, 0), scale(1, 1)">
				<g>
					<path d="M213.9,194.2c0,0,13.2-2.6,26,3C235.5,189.4,220.2,188.2,213.9,194.2z"/>
					<path d="M286.1,194.2c0,0-13.2-2.6-26,3C264.5,189.4,279.8,188.2,286.1,194.2z"/>
				</g>
			</g>
		</g>
		<g id="lcart_mantle_y" transform="translate(0, 0), scale(1.15878,1.15878)">
		</g>
		<g id="lcart_glass_y" transform="translate(0, 0), scale(1.15878,1.15878)">
		</g>
		<g id="lcart_glassx_y" transform="translate(0, 0), scale(1.15878,1.15878)">
		</g>
		<g id="lcart_animal_f" transform="translate(0, 0), scale(1.15878,1.15878)">
		</g>
		<g id="lcart_hat_f" transform="translate(0, 0), scale(1.15878,1.15878)">
		</g>
		<g id="lcart_hatx_f" transform="translate(0, 0), scale(1.15878,1.15878)">
		</g>
		<g id="lcart_ahoge" transform="translate(0, 0), scale(1.15878,1.15878)">
		</g>
		<g id="lcart_base_f" transform="translate(0, 0), scale(1.15878,1.15878)">
		</g>
		<g id="lcart_left" transform="translate(0, 0), scale(1.15878,1.15878)">
		</g>
		<g id="lcart_right" transform="translate(0, 0), scale(1.15878,1.15878)">
		</g>
		<g id="lcart_wing_f" transform="translate(0, 0), scale(1.15878,1.15878)">
		</g>
		<g id="lcart_wingx_f" transform="translate(0, 0), scale(1.15878,1.15878)">
		</g>
		<g id="lcart_wingx2_f" transform="translate(0, 0), scale(1.15878,1.15878)">
		</g>
		<g id="lcart_deco_f" transform="translate(0, 0), scale(1.15878,1.15878)">
		</g>
		<g id="lcart_decox_f" transform="translate(0, 0), scale(1.15878,1.15878)">
		</g>
		<g id="lcart_decox2_f" transform="translate(0, 0), scale(1.15878,1.15878)">
		</g>
		<g id="lcart_option" transform="translate(0, 0), scale(1.15878,1.15878)">
		</g>
	</g>
</g>
</svg>
