<?xml version="1.0" encoding="utf-8"?>
<!-- Generator: Adobe Illustrator 24.1.2, SVG Export Plug-In . SVG Version: 6.00 Build 0)  -->
<svg version="1.1" id="chaSvgSave" xmlns="http://www.w3.org/2000/svg" xmlns:xlink="http://www.w3.org/1999/xlink" x="0px" y="0px"
	 viewBox="0 0 651 651" style="enable-background:new 0 0 651 651;" xml:space="preserve">
<style type="text/css">
	.st0{fill:#FFFFFF;}
	.st1{fill:#C2BFDC;}
	.st2{fill:url(#SVGID_1_);stroke:#000000;stroke-width:0.6714;stroke-miterlimit:13.4277;}
	.st3{fill:#FFFFFE;}
	.st4{opacity:0.5;fill:#FFFFFE;enable-background:new    ;}
	.st5{fill:url(#SVGID_2_);stroke:#000000;stroke-width:0.6714;stroke-miterlimit:13.4277;}
</style>
<g id="chaSvgClip" transform="translate(35.80500000000001,35.80500000000001), scale(1,1)">
	<g id="chaSvgMake" transform="">
		<g id="lcart_chara" transform="translate(0, 0), scale(1.15878,1.15878)">
		</g>
		<g id="lcart_deco_y" transform="translate(0, 0), scale(1.15878,1.15878)">
		</g>
		<g id="lcart_decox_y" transform="translate(0, 0), scale(1.15878,1.15878)">
		</g>
		<g id="lcart_decox2_y" transform="translate(0, 0), scale(1.15878,1.15878)">
		</g>
		<g id="lcart_wing_r" transform="translate(0, 0), scale(1.15878,1.15878)">
		</g>
		<g id="lcart_wingx_r" transform="translate(0, 0), scale(1.15878,1.15878)">
		</g>
		<g id="lcart_wingx2_r" transform="translate(0, 0), scale(1.15878,1.15878)">
		</g>
		<g id="lcart_hat_r" transform="translate(0, 0), scale(1.15878,1.15878)">
		</g>
		<g id="lcart_hatx_r" transform="translate(0, 0), scale(1.15878,1.15878)">
		</g>
		<g id="lcart_hairyoko" transform="scale(1.1587799787521362,1.1587799787521362)">
			<g id="x001" transform="translate(0, 0), scale(1, 1)">
			</g>
		</g>
		<g id="lcart_neck_r" transform="translate(0, 0), scale(1.15878,1.15878)">
		</g>
		<g id="lcart_outer_r" transform="translate(0, 0), scale(1.15878,1.15878)">
		</g>
		<g id="lcart_hairushiro" transform="scale(1.1587799787521362,1.1587799787521362)">
			<g id="x001_1_" transform="translate(0, 0), scale(1, 1)">
			</g>
		</g>
		<g id="lcart_mantle_r" transform="translate(0, 0), scale(1.15878,1.15878)">
		</g>
		<g id="lcart_deco_r" transform="translate(0, 0), scale(1.15878,1.15878)">
		</g>
		<g id="lcart_decox_r" transform="translate(0, 0), scale(1.15878,1.15878)">
		</g>
		<g id="lcart_decox2_r" transform="translate(0, 0), scale(1.15878,1.15878)">
		</g>
		<g id="lcart_sleeve2_r" transform="translate(0, 0), scale(1.15878,1.15878)">
		</g>
		<g id="lcart_sleeve_r" transform="translate(0, 0), scale(1.15878,1.15878)">
		</g>
		<g id="lcart_onep_r" transform="translate(0, 0), scale(1.15878,1.15878)">
		</g>
		<g id="lcart_topsx_r" transform="translate(0, 0), scale(1.15878,1.15878)">
		</g>
		<g id="lcart_tops_r" transform="translate(0, 0), scale(1.15878,1.15878)">
		</g>
		<g id="lcart_bottoms_r" transform="scale(1.1587799787521362,1.1587799787521362)">
		</g>
		<g id="lcart_bodypaint" transform="scale(1.1587799787521362,1.1587799787521362)">
			<g id="x001_3_" transform="translate(0, 0), scale(1, 1)">
			</g>
		</g>
		<g id="lcart_socks_r" transform="translate(0, 0), scale(1.15878,1.15878)">
		</g>
		<g id="lcart_shoes_f" transform="translate(0, 0), scale(1.15878,1.15878)">
		</g>
		<g id="lcart_socks_f" transform="translate(0, 0), scale(1.15878,1.15878)">
		</g>
		<g id="lcart_shoes_r" transform="translate(0, 0), scale(1.15878,1.15878)">
		</g>
		<g id="lcart_face_r" transform="translate(0, 0), scale(1.15878,1.15878)">
		</g>
		<g id="lcart_glove_r" transform="translate(0, 0), scale(1.15878,1.15878)">
		</g>
		<g id="lcart_glovex_r" transform="translate(0, 0), scale(1.15878,1.15878)">
		</g>
		<g id="lcart_sleeve_f" transform="translate(0, 0), scale(1.15878,1.15878)">
		</g>
		<g id="lcart_sleeve2_f" transform="translate(0, 0), scale(1.15878,1.15878)">
		</g>
		<g id="lcart_belt_r" transform="translate(0, 0), scale(1.15878,1.15878)">
		</g>
		<g id="lcart_inner" transform="translate(0, 0), scale(1.15878,1.15878)">
		</g>
		<g id="lcart_bottoms_f" transform="scale(1.1587799787521362,1.1587799787521362)">
			<g id="x001_4_" transform="translate(0, 0), scale(1, 1)">
			</g>
		</g>
		<g id="lcart_tops_f" transform="translate(0, 0), scale(1.15878,1.15878)">
			<g id="x001_5_" transform="translate(0, 0), scale(1, 1)">
			</g>
		</g>
		<g id="lcart_topsx_f" transform="translate(0, 0), scale(1.15878,1.15878)">
		</g>
		<g id="lcart_bottoms_y" transform="scale(1.1587799787521362,1.1587799787521362)">
		</g>
		<g id="lcart_onep_f" transform="translate(0, 0), scale(1.15878,1.15878)">
		</g>
		<g id="lcart_belt_f" transform="translate(0, 0), scale(1.15878,1.15878)">
		</g>
		<g id="lcart_outer_f" transform="translate(0, 0), scale(1.15878,1.15878)">
		</g>
		<g id="lcart_mantle_f" transform="translate(0, 0), scale(1.15878,1.15878)">
			<g id="x001_6_" transform="translate(0, 0), scale(1, 1)">
			</g>
		</g>
		<g id="lcart_animal_r" transform="translate(0, 0), scale(1.15878,1.15878)">
		</g>
		<g id="lcart_ear" transform="scale(1.1587799787521362,1.1587799787521362)">
			<g id="x001_7_" transform="translate(0, 0), scale(1, 1)">
			</g>
		</g>
		<g id="lcart_neck_y" transform="translate(0, 0), scale(1.15878,1.15878)">
		</g>
		<g id="lcart_facepaint" transform="scale(1.1587799787521362,1.1587799787521362)">
			<g id="x001_8_" transform="translate(0, 0), scale(1, 1)">
			</g>
		</g>
		<g id="lcart_eye" transform="scale(1.1587799787521362,1.1587799787521362)">
			<g id="x120" transform="translate(0, 0) scale(1,1)">
				<g>
					<g>
						<g>
							<path class="st0" d="M233.9,214c0,0,3.3,10.2-2.9,19c-4.1,1.1-13.8,1.9-18-1.6s-10.7-12.1-10.7-12.1s6.6-10.1,15.9-10.4
								C227.6,208.6,233.9,214,233.9,214z"/>
							<path class="st1" d="M218.2,208.9c9.4-0.3,15.6,5.1,15.6,5.1s0.7,2,0.8,5.1c-9.9-4.2-21.2-2.4-29.7,3.6
								c-1.6-2-2.7-3.4-2.7-3.4S208.9,209.2,218.2,208.9z"/>
						</g>
						<g>
							
								<linearGradient id="SVGID_1_" gradientUnits="userSpaceOnUse" x1="117.1348" y1="378.0071" x2="117.1348" y2="353.5569" gradientTransform="matrix(1.3428 0 0 1.3428 65.1761 -276.8858)">
								<stop  offset="0" style="stop-color:#FFFFFF"/>
								<stop  offset="1" style="stop-color:#FF1717"/>
							</linearGradient>
							<path class="st2" d="M227.9,211.5c0,0,4,4.6,3.6,10s-3.3,9.2-8.8,9.2s-9.3-3.9-9.3-10.5s3.6-10,3.6-10
								S224.3,208.2,227.9,211.5z"/>
							<path d="M217,210.2c0,0,7.3-2.1,10.9,1.2c0,0,4,4.6,3.6,10c0,0.1,0,0.2,0,0.3c-3.8-4.8-12.8-3.2-17.9-0.1
								c0-0.5-0.1-1-0.1-1.5C213.4,213.7,217,210.2,217,210.2z"/>
							<ellipse cx="223.1" cy="221.6" rx="4" ry="4.9"/>
							<ellipse class="st3" cx="215.5" cy="218.7" rx="2.7" ry="3"/>
							<ellipse class="st4" cx="223" cy="227.9" rx="4.7" ry="2.7"/>
						</g>
						<g>
							<path d="M238.4,219.3c0,0-2.6-7.3-8-10.1c-5.5-2.8-13.4-3.3-20.1-2.3s-8-0.6-8-0.6s1.9,2.9,4.4,3.4c-4.2,4.1-6.1,6-5.8,10.5
								c2.3,4.9,7,13.3,14.6,14.2c8.6,1,15.2-1.1,15.7-1.3c-6.3,0.7-11.9,0.9-15.6-0.4c0,0-10.8-6.6-10.5-14.5
								c3.1-5.1,6.7-5.9,13.3-6.5C230.3,210.7,238.4,219.3,238.4,219.3z"/>
							<path d="M229.6,210.3c0,0,5.8,2.6,7.8,4.4c-2-4-8.6-7.1-13-7.5C226.9,208.8,229.6,210.3,229.6,210.3z"/>
							<path d="M224.4,207.3c0,0-10.8-1.3-14.1-3.8c1.2,1.4,1.5,3,6.1,4L224.4,207.3z"/>
							<path d="M205.9,213.7c-2.9,0.6-5.4-0.8-9.1-3.2c4.1,1.1,10.2,0.1,10.5-0.3L205.9,213.7z"/>
							<path d="M213.2,233.2c0,0-4.8-0.6-6.5,1.5c2-3.4,3.5-4.5,3.5-4.5L213.2,233.2z"/>
							<path d="M209.5,231.2c0,0-3.3-1.7-5-0.6c-0.1-2.7,1.8-4.3,1.8-4.3L209.5,231.2z"/>
							<path d="M205.3,227c0,0-5.9-4.7-9-4.5c1-1.4,3.1-3.8,3.1-3.8s-1.6-0.6-5.2,0.2c5.1-3.8,8-6.6,10.5-6.6
								C204.2,214.6,203.2,223.3,205.3,227z"/>
						</g>
						<path d="M237.3,206.1c0,0-3.2-2.5-7-3.4c-3.8-0.8-11.9-0.8-13.9-0.1c2.5-1.8,10.7-2.2,13.9-1.4
							C234.8,202.2,237.3,206.1,237.3,206.1z"/>
					</g>
					<g id="lefteye_94_">
						<g>
							<path class="st0" d="M266.1,214c0,0-3.3,10.2,2.9,19c4.1,1.1,13.8,1.9,18-1.6s10.7-12.1,10.7-12.1s-6.6-10.1-15.9-10.4
								C272.4,208.6,266.1,214,266.1,214z"/>
							<path class="st1" d="M281.8,208.9c-9.4-0.3-15.6,5.1-15.6,5.1s-0.7,2-0.8,5.1c9.9-4.2,21.2-2.4,29.7,3.6
								c1.6-2,2.7-3.4,2.7-3.4S291.1,209.2,281.8,208.9z"/>
						</g>
						<g>
							
								<linearGradient id="SVGID_2_" gradientUnits="userSpaceOnUse" x1="158.1477" y1="378.0071" x2="158.1477" y2="353.5569" gradientTransform="matrix(1.3428 0 0 1.3428 65.1761 -276.8858)">
								<stop  offset="0" style="stop-color:#FFFFFF"/>
								<stop  offset="1" style="stop-color:#FF1717"/>
							</linearGradient>
							<path class="st5" d="M272.1,211.5c0,0-4,4.6-3.6,10s3.3,9.2,8.8,9.2s9.3-3.9,9.3-10.5s-3.6-10-3.6-10
								S275.7,208.2,272.1,211.5z"/>
							<path d="M283,210.2c0,0-7.3-2.1-10.9,1.2c0,0-4,4.6-3.6,10c0,0.1,0,0.2,0,0.3c3.8-4.8,12.8-3.2,17.9-0.1c0-0.5,0.1-1,0.1-1.5
								C286.6,213.7,283,210.2,283,210.2z"/>
							<ellipse cx="276.9" cy="221.6" rx="4" ry="4.9"/>
							<ellipse class="st3" cx="271.4" cy="218.7" rx="2.7" ry="3"/>
							<ellipse class="st4" cx="277" cy="227.9" rx="4.7" ry="2.7"/>
						</g>
						<g>
							<path d="M261.6,219.3c0,0,2.6-7.3,8-10.1c5.5-2.8,13.4-3.3,20.1-2.3s8-0.6,8-0.6s-1.9,2.9-4.4,3.4c4.2,4.1,6.1,6,5.8,10.5
								c-2.3,4.9-7,13.3-14.6,14.2c-8.6,1-15.2-1.1-15.7-1.3c6.3,0.7,11.9,0.9,15.6-0.4c0,0,10.8-6.6,10.5-14.5
								c-3.1-5.1-6.7-5.9-13.3-6.5C269.7,210.7,261.6,219.3,261.6,219.3z"/>
							<path d="M270.4,210.3c0,0-5.8,2.6-7.8,4.4c2-4,8.6-7.1,13-7.5C273.1,208.8,270.4,210.3,270.4,210.3z"/>
							<path d="M275.6,207.3c0,0,10.8-1.3,14.1-3.8c-1.2,1.4-1.5,3-6.1,4L275.6,207.3z"/>
							<path d="M294.1,213.7c2.9,0.6,5.4-0.8,9.1-3.2c-4.1,1.1-10.2,0.1-10.5-0.3L294.1,213.7z"/>
							<path d="M286.8,233.2c0,0,4.8-0.6,6.5,1.5c-2-3.4-3.5-4.5-3.5-4.5L286.8,233.2z"/>
							<path d="M290.5,231.2c0,0,3.3-1.7,5-0.6c0.1-2.7-1.8-4.3-1.8-4.3L290.5,231.2z"/>
							<path d="M294.7,227c0,0,5.9-4.7,9-4.5c-1-1.4-3.1-3.8-3.1-3.8s1.6-0.6,5.2,0.2c-5.1-3.8-8-6.6-10.5-6.6
								C295.8,214.6,296.8,223.3,294.7,227z"/>
						</g>
						<path d="M262.7,206.1c0,0,3.2-2.5,7-3.4c3.8-0.8,11.9-0.8,13.9-0.1c-2.5-1.8-10.7-2.2-13.9-1.4
							C265.2,202.2,262.7,206.1,262.7,206.1z"/>
					</g>
				</g>
			</g>
		</g>
		<g id="lcart_hige" transform="translate(0, 0), scale(1.15878,1.15878)">
		</g>
		<g id="lcart_glass_r" transform="translate(0, 0), scale(1.15878,1.15878)">
		</g>
		<g id="lcart_glassx_r" transform="translate(0, 0), scale(1.15878,1.15878)">
		</g>
		<g id="lcart_glove_f" transform="translate(0, 0), scale(1.15878,1.15878)">
		</g>
		<g id="lcart_glovex_f" transform="translate(0, 0), scale(1.15878,1.15878)">
		</g>
		<g id="lcart_earring" transform="translate(0, 0), scale(1.15878,1.15878)">
		</g>
		<g id="lcart_neck_f" transform="translate(0, 0), scale(1.15878,1.15878)">
		</g>
		<g id="lcart_glass_f" transform="translate(0, 0), scale(1.15878,1.15878)">
		</g>
		<g id="lcart_glassx_f" transform="translate(0, 0), scale(1.15878,1.15878)">
		</g>
		<g id="lcart_hairmae_r" transform="scale(1.1587799787521362,1.1587799787521362)">
		</g>
		<g id="lcart_momiage_r" transform="scale(1.1587799787521362,1.1587799787521362)">
			<g id="x001_10_" transform="translate(0, 0), scale(1, 1)">
			</g>
		</g>
		<g id="lcart_momiagex_r" transform="scale(1.1587799787521362,1.1587799787521362)">
			<g id="x001_11_" transform="translate(0, 0), scale(1, 1)">
			</g>
		</g>
		<g id="lcart_hairmae_f" transform="scale(1.1587799787521362,1.1587799787521362)">
			<g id="x001_12_" transform="translate(0, 0), scale(1, 1)">
			</g>
		</g>
		<g id="lcart_momiage_f" transform="scale(1.1587799787521362,1.1587799787521362)">
		</g>
		<g id="lcart_momiagex_f" transform="scale(1.1587799787521362,1.1587799787521362)">
		</g>
		<g id="lcart_mesh" transform="scale(1.1587799787521362,1.1587799787521362)">
			<g id="x001_13_" transform="translate(0, 0), scale(1, 1)">
			</g>
		</g>
		<g id="lcart_meshx" transform="scale(1.1587799787521362,1.1587799787521362)">
			<g id="x001_14_" transform="translate(0, 0), scale(1, 1)">
			</g>
		</g>
		<g id="lcart_eyeblow" transform="scale(1.1587799787521362,1.1587799787521362)">
			<g id="x002_2_" transform="translate(0, 0), scale(1, 1)">
				<g>
					<path d="M213.9,194.2c0,0,13.2-2.6,26,3C235.5,189.4,220.2,188.2,213.9,194.2z"/>
					<path d="M286.1,194.2c0,0-13.2-2.6-26,3C264.5,189.4,279.8,188.2,286.1,194.2z"/>
				</g>
			</g>
		</g>
		<g id="lcart_mantle_y" transform="translate(0, 0), scale(1.15878,1.15878)">
		</g>
		<g id="lcart_glass_y" transform="translate(0, 0), scale(1.15878,1.15878)">
		</g>
		<g id="lcart_glassx_y" transform="translate(0, 0), scale(1.15878,1.15878)">
		</g>
		<g id="lcart_animal_f" transform="translate(0, 0), scale(1.15878,1.15878)">
		</g>
		<g id="lcart_hat_f" transform="translate(0, 0), scale(1.15878,1.15878)">
		</g>
		<g id="lcart_hatx_f" transform="translate(0, 0), scale(1.15878,1.15878)">
		</g>
		<g id="lcart_ahoge" transform="translate(0, 0), scale(1.15878,1.15878)">
		</g>
		<g id="lcart_base_f" transform="translate(0, 0), scale(1.15878,1.15878)">
		</g>
		<g id="lcart_left" transform="translate(0, 0), scale(1.15878,1.15878)">
		</g>
		<g id="lcart_right" transform="translate(0, 0), scale(1.15878,1.15878)">
		</g>
		<g id="lcart_wing_f" transform="translate(0, 0), scale(1.15878,1.15878)">
		</g>
		<g id="lcart_wingx_f" transform="translate(0, 0), scale(1.15878,1.15878)">
		</g>
		<g id="lcart_wingx2_f" transform="translate(0, 0), scale(1.15878,1.15878)">
		</g>
		<g id="lcart_deco_f" transform="translate(0, 0), scale(1.15878,1.15878)">
		</g>
		<g id="lcart_decox_f" transform="translate(0, 0), scale(1.15878,1.15878)">
		</g>
		<g id="lcart_decox2_f" transform="translate(0, 0), scale(1.15878,1.15878)">
		</g>
		<g id="lcart_option" transform="translate(0, 0), scale(1.15878,1.15878)">
		</g>
	</g>
</g>
</svg>
