<?xml version="1.0" encoding="utf-8"?>
<!-- Generator: Adobe Illustrator 24.1.2, SVG Export Plug-In . SVG Version: 6.00 Build 0)  -->
<svg version="1.1" id="chaSvgSave" xmlns="http://www.w3.org/2000/svg" xmlns:xlink="http://www.w3.org/1999/xlink" x="0px" y="0px"
	 viewBox="0 0 651 651" style="enable-background:new 0 0 651 651;" xml:space="preserve">
<style type="text/css">
	.st0{fill:#FCFFFF;}
	
		.st1{fill:url(#SVGID_1_);stroke:#000000;stroke-width:0.5794;stroke-linecap:round;stroke-linejoin:round;stroke-miterlimit:5.3711;}
	.st2{opacity:0.5;fill:#FFFFFF;enable-background:new    ;}
	.st3{fill:#FFFFFF;}
	.st4{fill:#FFBF00;}
	
		.st5{fill:url(#SVGID_2_);stroke:#000000;stroke-width:0.5794;stroke-linecap:round;stroke-linejoin:round;stroke-miterlimit:5.3711;}
	.st6{fill:none;stroke:#57383D;stroke-width:4.2969;stroke-linecap:round;stroke-linejoin:round;stroke-miterlimit:5.3711;}
</style>
<path class="st0" d="M309.2,284.6c0.2,2,0.5,6.7-0.5,10.7c-1.4,5.6-8.3,11.4-14.7,11.5c-6.3,0.1-15.5-1.2-18.7-4.9
	c-2.4-2.7-4.3-9-5-11.7C281.2,281.8,296.4,278.8,309.2,284.6z"/>
<path class="st0" d="M341.1,284.6c-0.2,2-0.5,6.7,0.5,10.7c1.4,5.6,8.3,11.4,14.7,11.5c6.3,0.1,15.5-1.2,18.7-4.9
	c2.4-2.7,4.3-9,5-11.7C369.1,281.8,353.9,278.8,341.1,284.6z"/>
<g id="chaSvgClip" transform="translate(35.80500000000001,35.80500000000001), scale(1,1)">
	<g id="chaSvgMake" transform="">
		<g id="lcart_chara" transform="translate(0, 0), scale(1.15878,1.15878)">
		</g>
		<g id="lcart_deco_y" transform="translate(0, 0), scale(1.15878,1.15878)">
		</g>
		<g id="lcart_decox_y" transform="translate(0, 0), scale(1.15878,1.15878)">
		</g>
		<g id="lcart_decox2_y" transform="translate(0, 0), scale(1.15878,1.15878)">
		</g>
		<g id="lcart_wing_r" transform="translate(0, 0), scale(1.15878,1.15878)">
		</g>
		<g id="lcart_wingx_r" transform="translate(0, 0), scale(1.15878,1.15878)">
		</g>
		<g id="lcart_wingx2_r" transform="translate(0, 0), scale(1.15878,1.15878)">
		</g>
		<g id="lcart_hat_r" transform="translate(0, 0), scale(1.15878,1.15878)">
		</g>
		<g id="lcart_hatx_r" transform="translate(0, 0), scale(1.15878,1.15878)">
		</g>
		<g id="lcart_hairyoko" transform="scale(1.1587799787521362,1.1587799787521362)">
			<g id="x001" transform="translate(0, 0), scale(1, 1)">
			</g>
		</g>
		<g id="lcart_neck_r" transform="translate(0, 0), scale(1.15878,1.15878)">
		</g>
		<g id="lcart_outer_r" transform="translate(0, 0), scale(1.15878,1.15878)">
		</g>
		<g id="lcart_hairushiro" transform="scale(1.1587799787521362,1.1587799787521362)">
			<g id="x001_1_" transform="translate(0, 0), scale(1, 1)">
			</g>
		</g>
		<g id="lcart_mantle_r" transform="translate(0, 0), scale(1.15878,1.15878)">
		</g>
		<g id="lcart_deco_r" transform="translate(0, 0), scale(1.15878,1.15878)">
		</g>
		<g id="lcart_decox_r" transform="translate(0, 0), scale(1.15878,1.15878)">
		</g>
		<g id="lcart_decox2_r" transform="translate(0, 0), scale(1.15878,1.15878)">
		</g>
		<g id="lcart_sleeve2_r" transform="translate(0, 0), scale(1.15878,1.15878)">
		</g>
		<g id="lcart_sleeve_r" transform="translate(0, 0), scale(1.15878,1.15878)">
		</g>
		<g id="lcart_onep_r" transform="translate(0, 0), scale(1.15878,1.15878)">
		</g>
		<g id="lcart_topsx_r" transform="translate(0, 0), scale(1.15878,1.15878)">
		</g>
		<g id="lcart_tops_r" transform="translate(0, 0), scale(1.15878,1.15878)">
		</g>
		<g id="lcart_bottoms_r" transform="scale(1.1587799787521362,1.1587799787521362)">
		</g>
		<g id="lcart_bodypaint" transform="scale(1.1587799787521362,1.1587799787521362)">
			<g id="x001_3_" transform="translate(0, 0), scale(1, 1)">
			</g>
		</g>
		<g id="lcart_socks_r" transform="translate(0, 0), scale(1.15878,1.15878)">
		</g>
		<g id="lcart_shoes_f" transform="translate(0, 0), scale(1.15878,1.15878)">
		</g>
		<g id="lcart_socks_f" transform="translate(0, 0), scale(1.15878,1.15878)">
		</g>
		<g id="lcart_shoes_r" transform="translate(0, 0), scale(1.15878,1.15878)">
		</g>
		<g id="lcart_face_r" transform="translate(0, 0), scale(1.15878,1.15878)">
		</g>
		<g id="lcart_glove_r" transform="translate(0, 0), scale(1.15878,1.15878)">
		</g>
		<g id="lcart_glovex_r" transform="translate(0, 0), scale(1.15878,1.15878)">
		</g>
		<g id="lcart_sleeve_f" transform="translate(0, 0), scale(1.15878,1.15878)">
		</g>
		<g id="lcart_sleeve2_f" transform="translate(0, 0), scale(1.15878,1.15878)">
		</g>
		<g id="lcart_belt_r" transform="translate(0, 0), scale(1.15878,1.15878)">
		</g>
		<g id="lcart_inner" transform="translate(0, 0), scale(1.15878,1.15878)">
		</g>
		<g id="lcart_bottoms_f" transform="scale(1.1587799787521362,1.1587799787521362)">
			<g id="x001_4_" transform="translate(0, 0), scale(1, 1)">
			</g>
		</g>
		<g id="lcart_tops_f" transform="translate(0, 0), scale(1.15878,1.15878)">
			<g id="x001_5_" transform="translate(0, 0), scale(1, 1)">
			</g>
		</g>
		<g id="lcart_topsx_f" transform="translate(0, 0), scale(1.15878,1.15878)">
		</g>
		<g id="lcart_bottoms_y" transform="scale(1.1587799787521362,1.1587799787521362)">
		</g>
		<g id="lcart_onep_f" transform="translate(0, 0), scale(1.15878,1.15878)">
		</g>
		<g id="lcart_belt_f" transform="translate(0, 0), scale(1.15878,1.15878)">
		</g>
		<g id="lcart_outer_f" transform="translate(0, 0), scale(1.15878,1.15878)">
		</g>
		<g id="lcart_mantle_f" transform="translate(0, 0), scale(1.15878,1.15878)">
			<g id="x001_6_" transform="translate(0, 0), scale(1, 1)">
			</g>
		</g>
		<g id="lcart_animal_r" transform="translate(0, 0), scale(1.15878,1.15878)">
		</g>
		<g id="lcart_ear" transform="scale(1.1587799787521362,1.1587799787521362)">
			<g id="x001_7_" transform="translate(0, 0), scale(1, 1)">
			</g>
		</g>
		<g id="lcart_neck_y" transform="translate(0, 0), scale(1.15878,1.15878)">
		</g>
		<g id="lcart_facepaint" transform="scale(1.1587799787521362,1.1587799787521362)">
			<g id="x001_8_" transform="translate(0, 0), scale(1, 1)">
			</g>
		</g>
		<g id="lcart_eye" transform="scale(1.1587799787521362,1.1587799787521362)">
			<g id="x099" transform="translate(0, 0) scale(1,1)">
				<g>
					<g>
						<g>
							<g>
								
									<linearGradient id="SVGID_1_" gradientUnits="userSpaceOnUse" x1="164.2518" y1="342.1719" x2="164.2518" y2="368.2468" gradientTransform="matrix(1.1588 0 0 -1.1588 31.9683 629.102)">
									<stop  offset="0" style="stop-color:#FFFFFF"/>
									<stop  offset="1" style="stop-color:#FF1717"/>
								</linearGradient>
								<ellipse class="st1" cx="222.3" cy="221.3" rx="9.3" ry="11.3"/>
								<path class="st2" d="M229.9,223.6c0,0-1.3,7.7-7.6,7.7s-7.8-6.6-6.8-7.8s2.5,4.2,6.6,4.2c4.2,0,6.1-4.7,6.7-4.7
									S230.1,223.1,229.9,223.6z"/>
								<g>
									<path class="st3" d="M216.6,220.9c4.1,1.6,4.8,2.9,5.7,10.1c0.9-7.1,1.7-8.4,5.7-10.1c-4.1-1.6-4.8-2.9-5.7-10.1
										C221.4,218,220.6,219.3,216.6,220.9z"/>
								</g>
								<polygon class="st4" points="215.3,213 214.6,214.8 213,215.1 214.1,216.5 213.9,218.5 215.3,217.6 216.6,218.5 
									216.4,216.5 217.5,215.1 216,214.8 								"/>
							</g>
							<g>
								<path d="M239.6,214c0,0-2.8-1.7-3-0.9s2.2,4.1,2,4.2c-1-0.3-7.2-6.7-14-7.1c-6.7-0.3-16.3,4.2-18.3,8.3
									c-0.4,4.9,0.4,9.2,2.8,12.6c-5.2-2-6.7-7.2-7.7-13.5c-1.5-1.6-2.5-5.6-2.5-5.6s5.6-0.7,7.7-2.5c2.1-1.8,10.4-6.1,18.9-4.8
									C232,205.7,238,209.7,239.6,214z"/>
								<path d="M239.7,209.7c0,0-5.2-8.6-17.8-8.9C228.5,198.8,236.5,201.3,239.7,209.7z"/>
							</g>
						</g>
						<path d="M206.4,210.6c-0.2,0-2-3-2-3.6s5.1,1.2,5.3,1.2L206.4,210.6z"/>
						<path d="M203.3,212.5c-0.2,0-2-3-2-3.6s5.1,1.2,5.3,1.2L203.3,212.5z"/>
						<path d="M209.3,208.7c-0.2,0-1.5-3.4-1.4-4s4.3,1.7,4.5,1.7L209.3,208.7z"/>
						<path d="M212.5,207.3c-0.2,0-1.5-3.4-1.4-4s4.9,2.2,5,2.2L212.5,207.3z"/>
					</g>
					<g id="lefteye_67_">
						<g>
							<g>
								
									<linearGradient id="SVGID_2_" gradientUnits="userSpaceOnUse" x1="212.0607" y1="342.1719" x2="212.0607" y2="368.2468" gradientTransform="matrix(1.1588 0 0 -1.1588 31.9683 629.102)">
									<stop  offset="0" style="stop-color:#FFFFFF"/>
									<stop  offset="1" style="stop-color:#FF1717"/>
								</linearGradient>
								<ellipse class="st5" cx="277.7" cy="221.3" rx="9.3" ry="11.3"/>
								<path class="st2" d="M270.1,223.6c0,0,1.3,7.7,7.6,7.7c6.3,0,7.8-6.6,6.8-7.8s-2.5,4.2-6.6,4.2c-4.2,0-6.1-4.7-6.7-4.7
									S269.9,223.1,270.1,223.6z"/>
								<g>
									<path class="st3" d="M283.4,220.9c-4.1,1.6-4.8,2.9-5.7,10.1c-0.9-7.1-1.7-8.4-5.7-10.1c4.1-1.6,4.8-2.9,5.7-10.1
										C278.6,218,279.4,219.3,283.4,220.9z"/>
								</g>
								<polygon class="st4" points="270.1,213 270.8,214.8 272.3,215.1 271.2,216.5 271.5,218.5 270.1,217.6 268.7,218.5 
									269,216.5 267.9,215.1 269.4,214.8 								"/>
							</g>
							<g>
								<path d="M260.4,214c0,0,2.8-1.7,3-0.9s-2.2,4.1-2,4.2c1-0.3,7.2-6.7,14-7.1c6.7-0.3,16.3,4.2,18.3,8.3
									c0.4,4.9-0.4,9.2-2.8,12.6c5.2-2,6.7-7.2,7.7-13.5c1.5-1.6,2.5-5.6,2.5-5.6s-5.6-0.7-7.7-2.5s-10.4-6.1-18.9-4.8
									C268,205.7,262,209.7,260.4,214z"/>
								<path d="M260.3,209.7c0,0,5.2-8.6,17.8-8.9C271.5,198.8,263.5,201.3,260.3,209.7z"/>
							</g>
						</g>
						<path d="M293.6,210.6c0.2,0,2-3,2-3.6s-5.1,1.2-5.3,1.2L293.6,210.6z"/>
						<path d="M296.7,212.5c0.2,0,2-3,2-3.6s-5.1,1.2-5.3,1.2L296.7,212.5z"/>
						<path d="M290.7,208.7c0.2,0,1.5-3.4,1.4-4s-4.3,1.7-4.5,1.7L290.7,208.7z"/>
						<path d="M287.5,207.3c0.2,0,1.5-3.4,1.4-4s-4.9,2.2-5,2.2L287.5,207.3z"/>
					</g>
				</g>
			</g>
		</g>
		<g id="lcart_mouth" transform="scale(1.1587799787521362,1.1587799787521362)">
			<g id="x001_9_" transform="translate(0, 0), scale(1, 1)">
				<path class="st6" d="M244.9,246.8"/>
				<path class="st6" d="M250.1,249.7"/>
				<path class="st6" d="M255.1,246.9"/>
			</g>
		</g>
		<g id="lcart_hige" transform="translate(0, 0), scale(1.15878,1.15878)">
		</g>
		<g id="lcart_glass_r" transform="translate(0, 0), scale(1.15878,1.15878)">
		</g>
		<g id="lcart_glassx_r" transform="translate(0, 0), scale(1.15878,1.15878)">
		</g>
		<g id="lcart_glove_f" transform="translate(0, 0), scale(1.15878,1.15878)">
		</g>
		<g id="lcart_glovex_f" transform="translate(0, 0), scale(1.15878,1.15878)">
		</g>
		<g id="lcart_earring" transform="translate(0, 0), scale(1.15878,1.15878)">
		</g>
		<g id="lcart_neck_f" transform="translate(0, 0), scale(1.15878,1.15878)">
		</g>
		<g id="lcart_glass_f" transform="translate(0, 0), scale(1.15878,1.15878)">
		</g>
		<g id="lcart_glassx_f" transform="translate(0, 0), scale(1.15878,1.15878)">
		</g>
		<g id="lcart_hairmae_r" transform="scale(1.1587799787521362,1.1587799787521362)">
		</g>
		<g id="lcart_momiage_r" transform="scale(1.1587799787521362,1.1587799787521362)">
			<g id="x001_10_" transform="translate(0, 0), scale(1, 1)">
			</g>
		</g>
		<g id="lcart_momiagex_r" transform="scale(1.1587799787521362,1.1587799787521362)">
			<g id="x001_11_" transform="translate(0, 0), scale(1, 1)">
			</g>
		</g>
		<g id="lcart_hairmae_f" transform="scale(1.1587799787521362,1.1587799787521362)">
			<g id="x001_12_" transform="translate(0, 0), scale(1, 1)">
			</g>
		</g>
		<g id="lcart_momiage_f" transform="scale(1.1587799787521362,1.1587799787521362)">
		</g>
		<g id="lcart_momiagex_f" transform="scale(1.1587799787521362,1.1587799787521362)">
		</g>
		<g id="lcart_mesh" transform="scale(1.1587799787521362,1.1587799787521362)">
			<g id="x001_13_" transform="translate(0, 0), scale(1, 1)">
			</g>
		</g>
		<g id="lcart_meshx" transform="scale(1.1587799787521362,1.1587799787521362)">
			<g id="x001_14_" transform="translate(0, 0), scale(1, 1)">
			</g>
		</g>
		<g id="lcart_eyeblow" transform="scale(1.1587799787521362,1.1587799787521362)">
			<g id="x002_2_" transform="translate(0, 0), scale(1, 1)">
				<g>
					<path d="M213.9,194.2c0,0,13.2-2.6,26,3C235.5,189.4,220.2,188.2,213.9,194.2z"/>
					<path d="M286.1,194.2c0,0-13.2-2.6-26,3C264.5,189.4,279.8,188.2,286.1,194.2z"/>
				</g>
			</g>
		</g>
		<g id="lcart_mantle_y" transform="translate(0, 0), scale(1.15878,1.15878)">
		</g>
		<g id="lcart_glass_y" transform="translate(0, 0), scale(1.15878,1.15878)">
		</g>
		<g id="lcart_glassx_y" transform="translate(0, 0), scale(1.15878,1.15878)">
		</g>
		<g id="lcart_animal_f" transform="translate(0, 0), scale(1.15878,1.15878)">
		</g>
		<g id="lcart_hat_f" transform="translate(0, 0), scale(1.15878,1.15878)">
		</g>
		<g id="lcart_hatx_f" transform="translate(0, 0), scale(1.15878,1.15878)">
		</g>
		<g id="lcart_ahoge" transform="translate(0, 0), scale(1.15878,1.15878)">
		</g>
		<g id="lcart_base_f" transform="translate(0, 0), scale(1.15878,1.15878)">
		</g>
		<g id="lcart_left" transform="translate(0, 0), scale(1.15878,1.15878)">
		</g>
		<g id="lcart_right" transform="translate(0, 0), scale(1.15878,1.15878)">
		</g>
		<g id="lcart_wing_f" transform="translate(0, 0), scale(1.15878,1.15878)">
		</g>
		<g id="lcart_wingx_f" transform="translate(0, 0), scale(1.15878,1.15878)">
		</g>
		<g id="lcart_wingx2_f" transform="translate(0, 0), scale(1.15878,1.15878)">
		</g>
		<g id="lcart_deco_f" transform="translate(0, 0), scale(1.15878,1.15878)">
		</g>
		<g id="lcart_decox_f" transform="translate(0, 0), scale(1.15878,1.15878)">
		</g>
		<g id="lcart_decox2_f" transform="translate(0, 0), scale(1.15878,1.15878)">
		</g>
		<g id="lcart_option" transform="translate(0, 0), scale(1.15878,1.15878)">
		</g>
	</g>
</g>
</svg>
