<?xml version="1.0" encoding="utf-8"?>
<!-- Generator: Adobe Illustrator 24.1.2, SVG Export Plug-In . SVG Version: 6.00 Build 0)  -->
<svg version="1.1" id="chaSvgSave" xmlns="http://www.w3.org/2000/svg" xmlns:xlink="http://www.w3.org/1999/xlink" x="0px" y="0px"
	 viewBox="0 0 651 651" style="enable-background:new 0 0 651 651;" xml:space="preserve">
<style type="text/css">
	.st0{fill:none;stroke:#231F20;stroke-width:1.1588;stroke-linecap:round;stroke-linejoin:round;stroke-miterlimit:6.2239;}
	.st1{fill:#FFFFFF;}
	.st2{fill:#C2BFDC;}
	
		.st3{fill:url(#SVGID_1_);stroke:#231F20;stroke-width:0.5794;stroke-linecap:round;stroke-linejoin:round;stroke-miterlimit:6.2239;}
	.st4{fill:#231F20;}
	
		.st5{fill:url(#SVGID_2_);stroke:#231F20;stroke-width:0.5794;stroke-linecap:round;stroke-linejoin:round;stroke-miterlimit:6.2239;}
</style>
<g id="chaSvgClip" transform="translate(35.80500000000001,35.80500000000001), scale(1,1)">
	<g id="chaSvgMake" transform="">
		<g id="lcart_chara" transform="translate(0, 0), scale(1.15878,1.15878)">
		</g>
		<g id="lcart_deco_y" transform="translate(0, 0), scale(1.15878,1.15878)">
		</g>
		<g id="lcart_decox_y" transform="translate(0, 0), scale(1.15878,1.15878)">
		</g>
		<g id="lcart_decox2_y" transform="translate(0, 0), scale(1.15878,1.15878)">
		</g>
		<g id="lcart_wing_r" transform="translate(0, 0), scale(1.15878,1.15878)">
		</g>
		<g id="lcart_wingx_r" transform="translate(0, 0), scale(1.15878,1.15878)">
		</g>
		<g id="lcart_wingx2_r" transform="translate(0, 0), scale(1.15878,1.15878)">
		</g>
		<g id="lcart_hat_r" transform="translate(0, 0), scale(1.15878,1.15878)">
		</g>
		<g id="lcart_hatx_r" transform="translate(0, 0), scale(1.15878,1.15878)">
		</g>
		<g id="lcart_hairyoko" transform="scale(1.1587799787521362,1.1587799787521362)">
			<g id="x001" transform="translate(0, 0), scale(1, 1)">
			</g>
		</g>
		<g id="lcart_neck_r" transform="translate(0, 0), scale(1.15878,1.15878)">
		</g>
		<g id="lcart_outer_r" transform="translate(0, 0), scale(1.15878,1.15878)">
		</g>
		<g id="lcart_hairushiro" transform="scale(1.1587799787521362,1.1587799787521362)">
			<g id="x001_1_" transform="translate(0, 0), scale(1, 1)">
			</g>
		</g>
		<g id="lcart_mantle_r" transform="translate(0, 0), scale(1.15878,1.15878)">
		</g>
		<g id="lcart_deco_r" transform="translate(0, 0), scale(1.15878,1.15878)">
		</g>
		<g id="lcart_decox_r" transform="translate(0, 0), scale(1.15878,1.15878)">
		</g>
		<g id="lcart_decox2_r" transform="translate(0, 0), scale(1.15878,1.15878)">
		</g>
		<g id="lcart_sleeve2_r" transform="translate(0, 0), scale(1.15878,1.15878)">
		</g>
		<g id="lcart_sleeve_r" transform="translate(0, 0), scale(1.15878,1.15878)">
		</g>
		<g id="lcart_onep_r" transform="translate(0, 0), scale(1.15878,1.15878)">
		</g>
		<g id="lcart_topsx_r" transform="translate(0, 0), scale(1.15878,1.15878)">
		</g>
		<g id="lcart_tops_r" transform="translate(0, 0), scale(1.15878,1.15878)">
		</g>
		<g id="lcart_bottoms_r" transform="scale(1.1587799787521362,1.1587799787521362)">
		</g>
		<g id="lcart_bodypaint" transform="scale(1.1587799787521362,1.1587799787521362)">
			<g id="x001_3_" transform="translate(0, 0), scale(1, 1)">
			</g>
		</g>
		<g id="lcart_socks_r" transform="translate(0, 0), scale(1.15878,1.15878)">
		</g>
		<g id="lcart_shoes_f" transform="translate(0, 0), scale(1.15878,1.15878)">
		</g>
		<g id="lcart_socks_f" transform="translate(0, 0), scale(1.15878,1.15878)">
		</g>
		<g id="lcart_shoes_r" transform="translate(0, 0), scale(1.15878,1.15878)">
		</g>
		<g id="lcart_face_r" transform="translate(0, 0), scale(1.15878,1.15878)">
		</g>
		<g id="lcart_glove_r" transform="translate(0, 0), scale(1.15878,1.15878)">
		</g>
		<g id="lcart_glovex_r" transform="translate(0, 0), scale(1.15878,1.15878)">
		</g>
		<g id="lcart_sleeve_f" transform="translate(0, 0), scale(1.15878,1.15878)">
		</g>
		<g id="lcart_sleeve2_f" transform="translate(0, 0), scale(1.15878,1.15878)">
		</g>
		<g id="lcart_belt_r" transform="translate(0, 0), scale(1.15878,1.15878)">
		</g>
		<g id="lcart_inner" transform="translate(0, 0), scale(1.15878,1.15878)">
		</g>
		<g id="lcart_bottoms_f" transform="scale(1.1587799787521362,1.1587799787521362)">
			<g id="x001_4_" transform="translate(0, 0), scale(1, 1)">
			</g>
		</g>
		<g id="lcart_tops_f" transform="translate(0, 0), scale(1.15878,1.15878)">
			<g id="x001_5_" transform="translate(0, 0), scale(1, 1)">
			</g>
		</g>
		<g id="lcart_topsx_f" transform="translate(0, 0), scale(1.15878,1.15878)">
		</g>
		<g id="lcart_bottoms_y" transform="scale(1.1587799787521362,1.1587799787521362)">
		</g>
		<g id="lcart_onep_f" transform="translate(0, 0), scale(1.15878,1.15878)">
		</g>
		<g id="lcart_belt_f" transform="translate(0, 0), scale(1.15878,1.15878)">
		</g>
		<g id="lcart_outer_f" transform="translate(0, 0), scale(1.15878,1.15878)">
		</g>
		<g id="lcart_mantle_f" transform="translate(0, 0), scale(1.15878,1.15878)">
			<g id="x001_6_" transform="translate(0, 0), scale(1, 1)">
			</g>
		</g>
		<g id="lcart_animal_r" transform="translate(0, 0), scale(1.15878,1.15878)">
		</g>
		<g id="lcart_ear" transform="scale(1.1587799787521362,1.1587799787521362)">
			<g id="x001_7_" transform="translate(0, 0), scale(1, 1)">
			</g>
		</g>
		<g id="lcart_neck_y" transform="translate(0, 0), scale(1.15878,1.15878)">
		</g>
		<g id="lcart_facepaint" transform="scale(1.1587799787521362,1.1587799787521362)">
			<g id="x001_8_" transform="translate(0, 0), scale(1, 1)">
			</g>
		</g>
		<g id="lcart_eye" transform="scale(1.1587799787521362,1.1587799787521362)">
			<g id="x135" transform="translate(0, 0) scale(1,1)">
				<g>
					<g>
						<g>
							<path class="st0" d="M231,205.7c0,0-6.1-1.8-28.7,0.1"/>
						</g>
						<g>
							<g>
								<path class="st1" d="M234.6,221.4c0,0,0.8,4.2-1.4,6.7s-17.6,9-25.8,0.6c-3.6-5.6-4.8-17.6-4.8-17.6l29.4-0.3L234.6,221.4z"
									/>
								<path class="st2" d="M233.7,218c0,0-12,0-30,0c-1.4-5.9-0.8-7.3-0.8-7.3H232L233.7,218z"/>
							</g>
							<g>
								
									<linearGradient id="SVGID_1_" gradientUnits="userSpaceOnUse" x1="163.3456" y1="345.6238" x2="163.3456" y2="366.482" gradientTransform="matrix(1.1588 0 0 -1.1588 31.9683 629.102)">
									<stop  offset="0" style="stop-color:#FFFFFF"/>
									<stop  offset="1" style="stop-color:#002FE7"/>
									<stop  offset="1" style="stop-color:#75008B"/>
								</linearGradient>
								<path class="st3" d="M229.4,210.9c0.7,1.7,1.2,3.8,1.2,5.8c0,6.9-4.4,11.9-9.5,11.9s-9.2-5.6-9.2-12.5
									c0-2.1,0.4-3.7,1.1-5.5"/>
								<path class="st1" d="M214.4,212.1c0,0-0.8,4-0.4,5.2c1.5,0,2.5,0.1,2.5,0.1s-0.1-4.3,0.7-5.5
									C216.2,212,214.4,212.1,214.4,212.1z"/>
								<path class="st1" d="M224.4,211.9c0.6,1.2,0.9,2.7,0.9,4.3c0,3.8-1.8,6.9-4.1,6.9s-4.1-3.1-4.1-6.9c0-1.6,0.3-3,0.8-4.2
									L224.4,211.9z"/>
							</g>
							<g>
								<path class="st0" d="M235.4,225c0,0-0.5-9.8-3.3-14.3c-12.1-0.8-28.9,0-28.9,0"/>
								<path class="st4" d="M201.8,210.7c0,0-2.8,18.5,10.1,21c-8.1-4.2-7.6-20.4-7.6-20.4L201.8,210.7z"/>
								<path class="st4" d="M202.2,218c0,0-8-5-8.9-6.7c4.5-1.1,11.9-1,11.9-1L202.2,218z"/>
								<path class="st4" d="M234.3,216.9c0,0,6.2-4.2,6.5-6.1c-2.5-0.6-6.2-0.5-8-0.4c-0.5,0-0.8,0.5-0.6,1L234.3,216.9z"/>
							</g>
						</g>
					</g>
					<g id="lefteye_8_">
						<g>
							<path class="st0" d="M269,205.7c0,0,6.1-1.8,28.7,0.1"/>
						</g>
						<g>
							<g>
								<path class="st1" d="M265.4,221.4c0,0-0.8,4.2,1.4,6.7c2.2,2.5,17.6,9,25.8,0.6c3.6-5.6,4.8-17.6,4.8-17.6l-29.4-0.3
									L265.4,221.4z"/>
								<path class="st2" d="M266.3,218c0,0,12,0,30,0c1.4-5.9,0.8-7.3,0.8-7.3H268L266.3,218z"/>
							</g>
							<g>
								
									<linearGradient id="SVGID_2_" gradientUnits="userSpaceOnUse" x1="212.9668" y1="345.6238" x2="212.9668" y2="366.482" gradientTransform="matrix(1.1588 0 0 -1.1588 31.9683 629.102)">
									<stop  offset="0" style="stop-color:#FFFFFF"/>
									<stop  offset="1" style="stop-color:#002FE7"/>
									<stop  offset="1" style="stop-color:#000000"/>
								</linearGradient>
								<path class="st5" d="M270.6,210.9c-0.7,1.7-1.2,3.8-1.2,5.8c0,6.9,4.4,11.9,9.5,11.9s9.2-5.6,9.2-12.5
									c0-2.1-0.4-3.7-1.1-5.5"/>
								<path class="st1" d="M271.6,212.1c0,0-0.8,4-0.4,5.2c1.5,0,2.5,0.1,2.5,0.1s-0.1-4.3,0.7-5.5
									C273.4,212,271.6,212.1,271.6,212.1z"/>
								<path class="st1" d="M275.6,211.9c-0.6,1.2-0.9,2.7-0.9,4.3c0,3.8,1.8,6.9,4.1,6.9s4.1-3.1,4.1-6.9c0-1.6-0.3-3-0.8-4.2
									L275.6,211.9z"/>
							</g>
							<g>
								<path class="st0" d="M264.6,225c0,0,0.5-9.8,3.3-14.3c12.1-0.8,28.9,0,28.9,0"/>
								<path class="st4" d="M298.2,210.7c0,0,2.8,18.5-10.1,21c8.1-4.2,7.6-20.4,7.6-20.4L298.2,210.7z"/>
								<path class="st4" d="M298.6,218c0,0,8-5,8.9-6.7c-4.5-1.1-11.9-1-11.9-1L298.6,218z"/>
								<path class="st4" d="M265.4,217c0,0-4.5-4.5-4.8-6.4c3.4-0.8,9-0.3,9-0.3L265.4,217z"/>
							</g>
						</g>
					</g>
				</g>
			</g>
		</g>
		<g id="lcart_hige" transform="translate(0, 0), scale(1.15878,1.15878)">
		</g>
		<g id="lcart_glass_r" transform="translate(0, 0), scale(1.15878,1.15878)">
		</g>
		<g id="lcart_glassx_r" transform="translate(0, 0), scale(1.15878,1.15878)">
		</g>
		<g id="lcart_glove_f" transform="translate(0, 0), scale(1.15878,1.15878)">
		</g>
		<g id="lcart_glovex_f" transform="translate(0, 0), scale(1.15878,1.15878)">
		</g>
		<g id="lcart_earring" transform="translate(0, 0), scale(1.15878,1.15878)">
		</g>
		<g id="lcart_neck_f" transform="translate(0, 0), scale(1.15878,1.15878)">
		</g>
		<g id="lcart_glass_f" transform="translate(0, 0), scale(1.15878,1.15878)">
		</g>
		<g id="lcart_glassx_f" transform="translate(0, 0), scale(1.15878,1.15878)">
		</g>
		<g id="lcart_hairmae_r" transform="scale(1.1587799787521362,1.1587799787521362)">
		</g>
		<g id="lcart_momiage_r" transform="scale(1.1587799787521362,1.1587799787521362)">
			<g id="x001_10_" transform="translate(0, 0), scale(1, 1)">
			</g>
		</g>
		<g id="lcart_momiagex_r" transform="scale(1.1587799787521362,1.1587799787521362)">
			<g id="x001_11_" transform="translate(0, 0), scale(1, 1)">
			</g>
		</g>
		<g id="lcart_hairmae_f" transform="scale(1.1587799787521362,1.1587799787521362)">
			<g id="x001_12_" transform="translate(0, 0), scale(1, 1)">
			</g>
		</g>
		<g id="lcart_momiage_f" transform="scale(1.1587799787521362,1.1587799787521362)">
		</g>
		<g id="lcart_momiagex_f" transform="scale(1.1587799787521362,1.1587799787521362)">
		</g>
		<g id="lcart_mesh" transform="scale(1.1587799787521362,1.1587799787521362)">
			<g id="x001_13_" transform="translate(0, 0), scale(1, 1)">
			</g>
		</g>
		<g id="lcart_meshx" transform="scale(1.1587799787521362,1.1587799787521362)">
			<g id="x001_14_" transform="translate(0, 0), scale(1, 1)">
			</g>
		</g>
		<g id="lcart_mantle_y" transform="translate(0, 0), scale(1.15878,1.15878)">
		</g>
		<g id="lcart_glass_y" transform="translate(0, 0), scale(1.15878,1.15878)">
		</g>
		<g id="lcart_glassx_y" transform="translate(0, 0), scale(1.15878,1.15878)">
		</g>
		<g id="lcart_animal_f" transform="translate(0, 0), scale(1.15878,1.15878)">
		</g>
		<g id="lcart_hat_f" transform="translate(0, 0), scale(1.15878,1.15878)">
		</g>
		<g id="lcart_hatx_f" transform="translate(0, 0), scale(1.15878,1.15878)">
		</g>
		<g id="lcart_ahoge" transform="translate(0, 0), scale(1.15878,1.15878)">
		</g>
		<g id="lcart_base_f" transform="translate(0, 0), scale(1.15878,1.15878)">
		</g>
		<g id="lcart_left" transform="translate(0, 0), scale(1.15878,1.15878)">
		</g>
		<g id="lcart_right" transform="translate(0, 0), scale(1.15878,1.15878)">
		</g>
		<g id="lcart_wing_f" transform="translate(0, 0), scale(1.15878,1.15878)">
		</g>
		<g id="lcart_wingx_f" transform="translate(0, 0), scale(1.15878,1.15878)">
		</g>
		<g id="lcart_wingx2_f" transform="translate(0, 0), scale(1.15878,1.15878)">
		</g>
		<g id="lcart_deco_f" transform="translate(0, 0), scale(1.15878,1.15878)">
		</g>
		<g id="lcart_decox_f" transform="translate(0, 0), scale(1.15878,1.15878)">
		</g>
		<g id="lcart_decox2_f" transform="translate(0, 0), scale(1.15878,1.15878)">
		</g>
		<g id="lcart_option" transform="translate(0, 0), scale(1.15878,1.15878)">
		</g>
	</g>
</g>
</svg>
