<?xml version="1.0" encoding="utf-8"?>
<!-- Generator: Adobe Illustrator 24.1.2, SVG Export Plug-In . SVG Version: 6.00 Build 0)  -->
<svg version="1.1" id="chaSvgSave" xmlns="http://www.w3.org/2000/svg" xmlns:xlink="http://www.w3.org/1999/xlink" x="0px" y="0px"
	 viewBox="0 0 651 651" style="enable-background:new 0 0 651 651;" xml:space="preserve">
<style type="text/css">
	.st0{fill:#FFFFFF;}
	.st1{fill:#C2BFDC;}
	.st2{opacity:0.5;fill:#FFFFFF;enable-background:new    ;}
	
		.st3{fill:url(#SVGID_1_);stroke:#000000;stroke-width:0.5794;stroke-linecap:round;stroke-linejoin:round;stroke-miterlimit:5.3711;}
	.st4{fill:#FFFFFE;}
	.st5{opacity:0.3;fill:#FFFFFF;enable-background:new    ;}
	.st6{fill:#57383D;}
	
		.st7{fill:url(#SVGID_2_);stroke:#000000;stroke-width:0.5794;stroke-linecap:round;stroke-linejoin:round;stroke-miterlimit:5.3711;}
</style>
<g id="chaSvgClip" transform="translate(35.80500000000001,35.80500000000001), scale(1,1)">
	<g id="chaSvgMake" transform="">
		<g id="lcart_chara" transform="translate(0, 0), scale(1.15878,1.15878)">
		</g>
		<g id="lcart_deco_y" transform="translate(0, 0), scale(1.15878,1.15878)">
		</g>
		<g id="lcart_decox_y" transform="translate(0, 0), scale(1.15878,1.15878)">
		</g>
		<g id="lcart_decox2_y" transform="translate(0, 0), scale(1.15878,1.15878)">
		</g>
		<g id="lcart_wing_r" transform="translate(0, 0), scale(1.15878,1.15878)">
		</g>
		<g id="lcart_wingx_r" transform="translate(0, 0), scale(1.15878,1.15878)">
		</g>
		<g id="lcart_wingx2_r" transform="translate(0, 0), scale(1.15878,1.15878)">
		</g>
		<g id="lcart_hat_r" transform="translate(0, 0), scale(1.15878,1.15878)">
		</g>
		<g id="lcart_hatx_r" transform="translate(0, 0), scale(1.15878,1.15878)">
		</g>
		<g id="lcart_hairyoko" transform="scale(1.1587799787521362,1.1587799787521362)">
			<g id="x001" transform="translate(0, 0), scale(1, 1)">
			</g>
		</g>
		<g id="lcart_neck_r" transform="translate(0, 0), scale(1.15878,1.15878)">
		</g>
		<g id="lcart_outer_r" transform="translate(0, 0), scale(1.15878,1.15878)">
		</g>
		<g id="lcart_hairushiro" transform="scale(1.1587799787521362,1.1587799787521362)">
			<g id="x001_1_" transform="translate(0, 0), scale(1, 1)">
			</g>
		</g>
		<g id="lcart_mantle_r" transform="translate(0, 0), scale(1.15878,1.15878)">
		</g>
		<g id="lcart_deco_r" transform="translate(0, 0), scale(1.15878,1.15878)">
		</g>
		<g id="lcart_decox_r" transform="translate(0, 0), scale(1.15878,1.15878)">
		</g>
		<g id="lcart_decox2_r" transform="translate(0, 0), scale(1.15878,1.15878)">
		</g>
		<g id="lcart_sleeve2_r" transform="translate(0, 0), scale(1.15878,1.15878)">
		</g>
		<g id="lcart_sleeve_r" transform="translate(0, 0), scale(1.15878,1.15878)">
		</g>
		<g id="lcart_onep_r" transform="translate(0, 0), scale(1.15878,1.15878)">
		</g>
		<g id="lcart_topsx_r" transform="translate(0, 0), scale(1.15878,1.15878)">
		</g>
		<g id="lcart_tops_r" transform="translate(0, 0), scale(1.15878,1.15878)">
		</g>
		<g id="lcart_bottoms_r" transform="scale(1.1587799787521362,1.1587799787521362)">
		</g>
		<g id="lcart_bodypaint" transform="scale(1.1587799787521362,1.1587799787521362)">
			<g id="x001_3_" transform="translate(0, 0), scale(1, 1)">
			</g>
		</g>
		<g id="lcart_socks_r" transform="translate(0, 0), scale(1.15878,1.15878)">
		</g>
		<g id="lcart_shoes_f" transform="translate(0, 0), scale(1.15878,1.15878)">
		</g>
		<g id="lcart_socks_f" transform="translate(0, 0), scale(1.15878,1.15878)">
		</g>
		<g id="lcart_shoes_r" transform="translate(0, 0), scale(1.15878,1.15878)">
		</g>
		<g id="lcart_face_r" transform="translate(0, 0), scale(1.15878,1.15878)">
		</g>
		<g id="lcart_glove_r" transform="translate(0, 0), scale(1.15878,1.15878)">
		</g>
		<g id="lcart_glovex_r" transform="translate(0, 0), scale(1.15878,1.15878)">
		</g>
		<g id="lcart_sleeve_f" transform="translate(0, 0), scale(1.15878,1.15878)">
		</g>
		<g id="lcart_sleeve2_f" transform="translate(0, 0), scale(1.15878,1.15878)">
		</g>
		<g id="lcart_belt_r" transform="translate(0, 0), scale(1.15878,1.15878)">
		</g>
		<g id="lcart_inner" transform="translate(0, 0), scale(1.15878,1.15878)">
		</g>
		<g id="lcart_bottoms_f" transform="scale(1.1587799787521362,1.1587799787521362)">
			<g id="x001_4_" transform="translate(0, 0), scale(1, 1)">
			</g>
		</g>
		<g id="lcart_tops_f" transform="translate(0, 0), scale(1.15878,1.15878)">
			<g id="x001_5_" transform="translate(0, 0), scale(1, 1)">
			</g>
		</g>
		<g id="lcart_topsx_f" transform="translate(0, 0), scale(1.15878,1.15878)">
		</g>
		<g id="lcart_bottoms_y" transform="scale(1.1587799787521362,1.1587799787521362)">
		</g>
		<g id="lcart_onep_f" transform="translate(0, 0), scale(1.15878,1.15878)">
		</g>
		<g id="lcart_belt_f" transform="translate(0, 0), scale(1.15878,1.15878)">
		</g>
		<g id="lcart_outer_f" transform="translate(0, 0), scale(1.15878,1.15878)">
		</g>
		<g id="lcart_mantle_f" transform="translate(0, 0), scale(1.15878,1.15878)">
			<g id="x001_6_" transform="translate(0, 0), scale(1, 1)">
			</g>
		</g>
		<g id="lcart_animal_r" transform="translate(0, 0), scale(1.15878,1.15878)">
		</g>
		<g id="lcart_ear" transform="scale(1.1587799787521362,1.1587799787521362)">
			<g id="x001_7_" transform="translate(0, 0), scale(1, 1)">
			</g>
		</g>
		<g id="lcart_neck_y" transform="translate(0, 0), scale(1.15878,1.15878)">
		</g>
		<g id="lcart_facepaint" transform="scale(1.1587799787521362,1.1587799787521362)">
			<g id="x001_8_" transform="translate(0, 0), scale(1, 1)">
			</g>
		</g>
		<g id="lcart_eye" transform="scale(1.1587799787521362,1.1587799787521362)">
			<g id="x090" transform="translate(0, 0) scale(1,1)">
				<g>
					<g>
						<path class="st0" d="M206,223c1.9,2.5,3.4,4.6,3.4,4.6s5.5,7.5,15.1,6.3c9.5-1.3,10.5-7.9,10.2-11.8c-0.1-1-0.1-2-0.2-3
							c-2.4-1.2-5.1-2-7.7-2.4C219.8,216.3,211.3,217.9,206,223z"/>
						<path class="st1" d="M232.6,213.1c-3.8-3-12.9-5.2-12.9-5.2s-14.3-3.1-16.2,11.8c0.8,1.1,1.6,2.2,2.4,3.2
							c5.3-5.1,13.8-6.7,20.8-6.2c2.7,0.4,5.3,1.2,7.7,2.4C234.2,216.4,233.7,213.9,232.6,213.1z"/>
						<g>
							<path d="M223.9,234.3"/>
							<path d="M211.6,223.9"/>
							<path d="M229.5,211.4c-5.3-2.7-8.6-4.1-12.1-3.4"/>
							<ellipse class="st2" cx="222.9" cy="229.8" rx="5.1" ry="2.1"/>
							
								<linearGradient id="SVGID_1_" gradientUnits="userSpaceOnUse" x1="164.7695" y1="342.2582" x2="164.7695" y2="368.2068" gradientTransform="matrix(1.1588 0 0 -1.1588 31.9683 629.102)">
								<stop  offset="0" style="stop-color:#FFFFFF"/>
								<stop  offset="1" style="stop-color:#002FE7"/>
							</linearGradient>
							<path class="st3" d="M229.1,212.6c-4.5-2.2-7.5-2.8-10.5-2.2c0,0-6.3,4.4-4.9,13.3c0.4,2.5,1.4,4.3,2.7,5.6
								c2.9,3,7,3.2,7.7,3.2c1.1-0.1,4.4-0.8,6.5-4.4c0.9-1.5,1.5-3.5,1.7-6.2C232.3,221.9,232.3,214.7,229.1,212.6z"/>
							<ellipse cx="222.6" cy="221.2" rx="4.1" ry="5.3"/>
							<path class="st4" d="M219.9,231.4c0,0-1.9,0-2.3-0.9c-0.4-1-0.1-1.9,0.5-2C218.7,228.3,219.7,230.7,219.9,231.4z"/>
							<path class="st4" d="M211.5,219.8c0,0,1.2,1.5,3,1.3s2.9-2.2,3-2.8c0.1-0.7-2.2-2.3-4-1.9C211.7,216.8,211,218,211.5,219.8z"
								/>
							<ellipse class="st0" cx="222.4" cy="227" rx="1.4" ry="0.9"/>
							
								<ellipse transform="matrix(0.496 -0.8683 0.8683 0.496 -76.6278 310.2652)" class="st5" cx="229" cy="221.1" rx="1" ry="1.7"/>
							
								<ellipse transform="matrix(0.4949 -0.869 0.869 0.4949 -78.6587 310.563)" class="st5" cx="227.8" cy="222.9" rx="0.6" ry="1"/>
							
								<ellipse transform="matrix(7.249545e-02 -0.9974 0.9974 7.249545e-02 -15.0252 421.0867)" class="st4" cx="218.9" cy="218.6" rx="0.4" ry="0.6"/>
							<path class="st4" d="M232.7,226.4c0,0-4.3-1-4.2-3.5S233,224.9,232.7,226.4z"/>
						</g>
						<g>
							<g>
								<path d="M215.7,201.3c0,0,10.3-1.3,15,0.2s8.9,5.1,8.9,5.1s-4.2-6.1-8.7-6.9C222.4,198.2,215.7,201.3,215.7,201.3z"/>
								<g>
									<path d="M210.1,228.7c0,0-5.8-5.6-7.1-6.9c-1.3-1.4-4.1-2.9-5.7-2.8c1.2-0.7,2.1-1.1,2.1-1.1s-3.3-0.2-4.6,0.3
										c3.2-2.1,2.9-1.3,5.2-3.6c2.3-2.2,5.8-8.4,14.2-8.9c8.5-0.4,12.3,1.1,14.1,2.5s9.6,8.5,9.6,8.5s-9.3-5.2-13.6-5.7
										c-4.4-0.6-11.1-1.6-16.3,2.5c-4,3.3-3.6,6.5-3.6,6.5L210.1,228.7z"/>
									<path d="M204.7,212.3c0,0-5.6-1-7-3.1c3.2,0.9,6.4,0.8,8.6,0.5"/>
									<path d="M213.9,207c0,0-3.6-2.3-4.3-4c4.2,1.8,7.6,3.1,8.2,4C218.4,207.9,213.9,207,213.9,207z"/>
									<path class="st6" d="M229.5,210.3"/>
									<path d="M226,207.6c0,0,7.7,2,10.9,4.7c-3.4-3.9-12.4-6.5-16.4-5.9C222.7,207.5,226,207.6,226,207.6z"/>
								</g>
							</g>
							<path class="st6" d="M212,231.4c-0.5-0.1-0.8-0.8-0.8-1.1"/>
						</g>
					</g>
					<g id="lefteye_153_">
						<path class="st0" d="M294,223c-1.9,2.5-3.4,4.6-3.4,4.6s-5.5,7.5-15.1,6.3c-9.5-1.3-10.5-7.9-10.2-11.8c0.1-1,0.1-2,0.2-3
							c2.4-1.2,5.1-2,7.7-2.4C280.2,216.3,288.7,217.9,294,223z"/>
						<path class="st1" d="M267.4,213.1c3.8-3,12.9-5.2,12.9-5.2s14.3-3.1,16.2,11.8c-0.8,1.1-1.6,2.2-2.4,3.2
							c-5.3-5.1-13.8-6.7-20.8-6.2c-2.7,0.4-5.3,1.2-7.7,2.4C265.8,216.4,266.3,213.9,267.4,213.1z"/>
						<g>
							<path d="M276.1,234.3"/>
							<path d="M288.4,223.9"/>
							<path d="M270.5,211.4c5.3-2.7,8.6-4.1,12.1-3.4"/>
							<path d="M266.3,221.7"/>
							<ellipse class="st2" cx="277.5" cy="229.8" rx="5.1" ry="2.1"/>
							
								<linearGradient id="SVGID_2_" gradientUnits="userSpaceOnUse" x1="211.8894" y1="342.2447" x2="211.8894" y2="368.1921" gradientTransform="matrix(1.1588 0 0 -1.1588 31.9683 629.102)">
								<stop  offset="0" style="stop-color:#FFFFFF"/>
								<stop  offset="1" style="stop-color:#002FE7"/>
							</linearGradient>
							<path class="st7" d="M281.8,210.4c-3-0.6-6.1-0.1-10.5,2.2c-3.2,2.1-3.2,9.3-3.2,9.3c0.2,2.7,0.9,4.7,1.7,6.2
								c2.1,3.7,5.4,4.3,6.5,4.4c0.6,0.1,4.8-0.2,7.7-3.2c1.3-1.3,2.3-3.1,2.7-5.6C288.1,214.8,281.8,210.4,281.8,210.4z"/>
							<ellipse cx="277.4" cy="221.2" rx="4.1" ry="5.3"/>
							<path class="st4" d="M275,231.4c0,0-1.9,0-2.3-0.9c-0.4-1-0.1-1.9,0.5-2S274.9,230.7,275,231.4z"/>
							<path class="st4" d="M266.7,219.8c0,0,1.2,1.5,3,1.3s2.9-2.2,3-2.8c0.1-0.7-2.2-2.3-4-1.9C266.9,216.8,266.2,218,266.7,219.8
								z"/>
							<ellipse class="st0" cx="277.6" cy="227" rx="1.4" ry="0.9"/>
							
								<ellipse transform="matrix(0.496 -0.8683 0.8683 0.496 -48.8008 358.1841)" class="st5" cx="284.2" cy="221.1" rx="1" ry="1.7"/>
							
								<ellipse transform="matrix(0.4949 -0.869 0.869 0.4949 -50.7661 358.5136)" class="st5" cx="283" cy="222.9" rx="0.6" ry="1"/>
							
								<ellipse transform="matrix(7.249545e-02 -0.9974 0.9974 7.249545e-02 36.0701 476.1967)" class="st4" cx="274.1" cy="218.7" rx="0.4" ry="0.6"/>
							<path class="st4" d="M287.9,226.4c0,0-4.3-1-4.2-3.5C283.8,220.4,288.1,224.9,287.9,226.4z"/>
						</g>
						<g>
							<g>
								<path d="M284.3,201.3c0,0-10.3-1.3-15,0.2c-4.7,1.6-8.9,5.1-8.9,5.1s4.2-6.1,8.7-6.9C277.6,198.2,284.3,201.3,284.3,201.3z"
									/>
								<g>
									<path d="M289.9,228.7c0,0,5.8-5.6,7.1-6.9c1.3-1.4,4.1-2.9,5.7-2.8c-1.2-0.7-2.1-1.1-2.1-1.1s3.3-0.2,4.6,0.3
										c-3.2-2.1-2.9-1.3-5.2-3.6c-2.3-2.2-5.8-8.4-14.2-8.9c-8.5-0.4-12.3,1.1-14.1,2.5s-9.6,8.5-9.6,8.5s9.3-5.2,13.6-5.7
										c4.4-0.6,11.1-1.6,16.3,2.5c4,3.3,3.6,6.5,3.6,6.5L289.9,228.7z"/>
									<path d="M295.3,212.3c0,0,5.6-1,7-3.1c-3.2,0.9-6.4,0.8-8.6,0.5"/>
									<path d="M286.1,207c0,0,3.6-2.3,4.3-4c-4.2,1.8-7.6,3.1-8.2,4C281.6,207.9,286.1,207,286.1,207z"/>
									<path class="st6" d="M270.5,210.3"/>
									<path d="M263.1,212.2c3.4-3.9,12.4-6.5,16.4-5.9c-2.2,1.2-5.5,1.3-5.5,1.3"/>
								</g>
							</g>
							<path class="st6" d="M288,231.4c0.5-0.1,0.8-0.8,0.8-1.1"/>
						</g>
					</g>
				</g>
			</g>
		</g>
		<g id="lcart_hige" transform="translate(0, 0), scale(1.15878,1.15878)">
		</g>
		<g id="lcart_glass_r" transform="translate(0, 0), scale(1.15878,1.15878)">
		</g>
		<g id="lcart_glassx_r" transform="translate(0, 0), scale(1.15878,1.15878)">
		</g>
		<g id="lcart_glove_f" transform="translate(0, 0), scale(1.15878,1.15878)">
		</g>
		<g id="lcart_glovex_f" transform="translate(0, 0), scale(1.15878,1.15878)">
		</g>
		<g id="lcart_earring" transform="translate(0, 0), scale(1.15878,1.15878)">
		</g>
		<g id="lcart_neck_f" transform="translate(0, 0), scale(1.15878,1.15878)">
		</g>
		<g id="lcart_glass_f" transform="translate(0, 0), scale(1.15878,1.15878)">
		</g>
		<g id="lcart_glassx_f" transform="translate(0, 0), scale(1.15878,1.15878)">
		</g>
		<g id="lcart_hairmae_r" transform="scale(1.1587799787521362,1.1587799787521362)">
		</g>
		<g id="lcart_momiage_r" transform="scale(1.1587799787521362,1.1587799787521362)">
			<g id="x001_10_" transform="translate(0, 0), scale(1, 1)">
			</g>
		</g>
		<g id="lcart_momiagex_r" transform="scale(1.1587799787521362,1.1587799787521362)">
			<g id="x001_11_" transform="translate(0, 0), scale(1, 1)">
			</g>
		</g>
		<g id="lcart_hairmae_f" transform="scale(1.1587799787521362,1.1587799787521362)">
			<g id="x001_12_" transform="translate(0, 0), scale(1, 1)">
			</g>
		</g>
		<g id="lcart_momiage_f" transform="scale(1.1587799787521362,1.1587799787521362)">
		</g>
		<g id="lcart_momiagex_f" transform="scale(1.1587799787521362,1.1587799787521362)">
		</g>
		<g id="lcart_mesh" transform="scale(1.1587799787521362,1.1587799787521362)">
			<g id="x001_13_" transform="translate(0, 0), scale(1, 1)">
			</g>
		</g>
		<g id="lcart_meshx" transform="scale(1.1587799787521362,1.1587799787521362)">
			<g id="x001_14_" transform="translate(0, 0), scale(1, 1)">
			</g>
		</g>
		<g id="lcart_eyeblow" transform="scale(1.1587799787521362,1.1587799787521362)">
			<g id="x002_2_" transform="translate(0, 0), scale(1, 1)">
				<g>
					<path d="M213.9,194.2c0,0,13.2-2.6,26,3C235.5,189.4,220.2,188.2,213.9,194.2z"/>
					<path d="M286.1,194.2c0,0-13.2-2.6-26,3C264.5,189.4,279.8,188.2,286.1,194.2z"/>
				</g>
			</g>
		</g>
		<g id="lcart_mantle_y" transform="translate(0, 0), scale(1.15878,1.15878)">
		</g>
		<g id="lcart_glass_y" transform="translate(0, 0), scale(1.15878,1.15878)">
		</g>
		<g id="lcart_glassx_y" transform="translate(0, 0), scale(1.15878,1.15878)">
		</g>
		<g id="lcart_animal_f" transform="translate(0, 0), scale(1.15878,1.15878)">
		</g>
		<g id="lcart_hat_f" transform="translate(0, 0), scale(1.15878,1.15878)">
		</g>
		<g id="lcart_hatx_f" transform="translate(0, 0), scale(1.15878,1.15878)">
		</g>
		<g id="lcart_ahoge" transform="translate(0, 0), scale(1.15878,1.15878)">
		</g>
		<g id="lcart_base_f" transform="translate(0, 0), scale(1.15878,1.15878)">
		</g>
		<g id="lcart_left" transform="translate(0, 0), scale(1.15878,1.15878)">
		</g>
		<g id="lcart_right" transform="translate(0, 0), scale(1.15878,1.15878)">
		</g>
		<g id="lcart_wing_f" transform="translate(0, 0), scale(1.15878,1.15878)">
		</g>
		<g id="lcart_wingx_f" transform="translate(0, 0), scale(1.15878,1.15878)">
		</g>
		<g id="lcart_wingx2_f" transform="translate(0, 0), scale(1.15878,1.15878)">
		</g>
		<g id="lcart_deco_f" transform="translate(0, 0), scale(1.15878,1.15878)">
		</g>
		<g id="lcart_decox_f" transform="translate(0, 0), scale(1.15878,1.15878)">
		</g>
		<g id="lcart_decox2_f" transform="translate(0, 0), scale(1.15878,1.15878)">
		</g>
		<g id="lcart_option" transform="translate(0, 0), scale(1.15878,1.15878)">
		</g>
	</g>
</g>
</svg>
