<?xml version="1.0" encoding="utf-8"?>
<!-- Generator: Adobe Illustrator 24.1.2, SVG Export Plug-In . SVG Version: 6.00 Build 0)  -->
<svg version="1.1" id="chaSvgSave" xmlns="http://www.w3.org/2000/svg" xmlns:xlink="http://www.w3.org/1999/xlink" x="0px" y="0px"
	 viewBox="0 0 651 651" style="enable-background:new 0 0 651 651;" xml:space="preserve">
<style type="text/css">
	.st0{fill:#FFFFFF;}
	.st1{fill:#C2BFDC;}
	.st2{fill:#FFFFFF;stroke:#000000;stroke-linecap:round;stroke-linejoin:round;stroke-miterlimit:4.6351;}
	.st3{fill:url(#SVGID_1_);}
	.st4{opacity:0.5;fill:#FFFFFE;enable-background:new    ;}
	.st5{fill:#FFFFFE;}
	.st6{stroke:#000000;stroke-linecap:round;stroke-linejoin:round;stroke-miterlimit:4.6351;}
	.st7{fill:url(#SVGID_2_);}
</style>
<g id="chaSvgClip" transform="translate(35.80500000000001,35.80500000000001), scale(1,1)">
	<g id="chaSvgMake" transform="">
		<g id="lcart_chara" transform="translate(0, 0), scale(1.15878,1.15878)">
		</g>
		<g id="lcart_deco_y" transform="translate(0, 0), scale(1.15878,1.15878)">
		</g>
		<g id="lcart_decox_y" transform="translate(0, 0), scale(1.15878,1.15878)">
		</g>
		<g id="lcart_decox2_y" transform="translate(0, 0), scale(1.15878,1.15878)">
		</g>
		<g id="lcart_wing_r" transform="translate(0, 0), scale(1.15878,1.15878)">
		</g>
		<g id="lcart_wingx_r" transform="translate(0, 0), scale(1.15878,1.15878)">
		</g>
		<g id="lcart_wingx2_r" transform="translate(0, 0), scale(1.15878,1.15878)">
		</g>
		<g id="lcart_hat_r" transform="translate(0, 0), scale(1.15878,1.15878)">
		</g>
		<g id="lcart_hatx_r" transform="translate(0, 0), scale(1.15878,1.15878)">
		</g>
		<g id="lcart_hairyoko" transform="scale(1.1587799787521362,1.1587799787521362)">
			<g id="x001" transform="translate(0, 0), scale(1, 1)">
			</g>
		</g>
		<g id="lcart_neck_r" transform="translate(0, 0), scale(1.15878,1.15878)">
		</g>
		<g id="lcart_outer_r" transform="translate(0, 0), scale(1.15878,1.15878)">
		</g>
		<g id="lcart_hairushiro" transform="scale(1.1587799787521362,1.1587799787521362)">
			<g id="x001_1_" transform="translate(0, 0), scale(1, 1)">
			</g>
		</g>
		<g id="lcart_mantle_r" transform="translate(0, 0), scale(1.15878,1.15878)">
		</g>
		<g id="lcart_deco_r" transform="translate(0, 0), scale(1.15878,1.15878)">
		</g>
		<g id="lcart_decox_r" transform="translate(0, 0), scale(1.15878,1.15878)">
		</g>
		<g id="lcart_decox2_r" transform="translate(0, 0), scale(1.15878,1.15878)">
		</g>
		<g id="lcart_sleeve2_r" transform="translate(0, 0), scale(1.15878,1.15878)">
		</g>
		<g id="lcart_sleeve_r" transform="translate(0, 0), scale(1.15878,1.15878)">
		</g>
		<g id="lcart_onep_r" transform="translate(0, 0), scale(1.15878,1.15878)">
		</g>
		<g id="lcart_topsx_r" transform="translate(0, 0), scale(1.15878,1.15878)">
		</g>
		<g id="lcart_tops_r" transform="translate(0, 0), scale(1.15878,1.15878)">
		</g>
		<g id="lcart_bottoms_r" transform="scale(1.1587799787521362,1.1587799787521362)">
		</g>
		<g id="lcart_bodypaint" transform="scale(1.1587799787521362,1.1587799787521362)">
			<g id="x001_3_" transform="translate(0, 0), scale(1, 1)">
			</g>
		</g>
		<g id="lcart_socks_r" transform="translate(0, 0), scale(1.15878,1.15878)">
		</g>
		<g id="lcart_shoes_f" transform="translate(0, 0), scale(1.15878,1.15878)">
		</g>
		<g id="lcart_socks_f" transform="translate(0, 0), scale(1.15878,1.15878)">
		</g>
		<g id="lcart_shoes_r" transform="translate(0, 0), scale(1.15878,1.15878)">
		</g>
		<g id="lcart_face_r" transform="translate(0, 0), scale(1.15878,1.15878)">
		</g>
		<g id="lcart_glove_r" transform="translate(0, 0), scale(1.15878,1.15878)">
		</g>
		<g id="lcart_glovex_r" transform="translate(0, 0), scale(1.15878,1.15878)">
		</g>
		<g id="lcart_sleeve_f" transform="translate(0, 0), scale(1.15878,1.15878)">
		</g>
		<g id="lcart_sleeve2_f" transform="translate(0, 0), scale(1.15878,1.15878)">
		</g>
		<g id="lcart_belt_r" transform="translate(0, 0), scale(1.15878,1.15878)">
		</g>
		<g id="lcart_inner" transform="translate(0, 0), scale(1.15878,1.15878)">
		</g>
		<g id="lcart_bottoms_f" transform="scale(1.1587799787521362,1.1587799787521362)">
			<g id="x001_4_" transform="translate(0, 0), scale(1, 1)">
			</g>
		</g>
		<g id="lcart_tops_f" transform="translate(0, 0), scale(1.15878,1.15878)">
			<g id="x001_5_" transform="translate(0, 0), scale(1, 1)">
			</g>
		</g>
		<g id="lcart_topsx_f" transform="translate(0, 0), scale(1.15878,1.15878)">
		</g>
		<g id="lcart_bottoms_y" transform="scale(1.1587799787521362,1.1587799787521362)">
		</g>
		<g id="lcart_onep_f" transform="translate(0, 0), scale(1.15878,1.15878)">
		</g>
		<g id="lcart_belt_f" transform="translate(0, 0), scale(1.15878,1.15878)">
		</g>
		<g id="lcart_outer_f" transform="translate(0, 0), scale(1.15878,1.15878)">
		</g>
		<g id="lcart_mantle_f" transform="translate(0, 0), scale(1.15878,1.15878)">
			<g id="x001_6_" transform="translate(0, 0), scale(1, 1)">
			</g>
		</g>
		<g id="lcart_animal_r" transform="translate(0, 0), scale(1.15878,1.15878)">
		</g>
		<g id="lcart_ear" transform="scale(1.1587799787521362,1.1587799787521362)">
			<g id="x001_7_" transform="translate(0, 0), scale(1, 1)">
			</g>
		</g>
		<g id="lcart_neck_y" transform="translate(0, 0), scale(1.15878,1.15878)">
		</g>
		<g id="lcart_facepaint" transform="scale(1.1587799787521362,1.1587799787521362)">
			<g id="x001_8_" transform="translate(0, 0), scale(1, 1)">
			</g>
		</g>
		<g id="lcart_eye" transform="scale(1.1587799787521362,1.1587799787521362)">
			<g id="x125" transform="translate(0, 0) scale(1,1)">
				<g>
					<g>
						<g>
							<path class="st0" d="M234.2,216.2c0.4,0.3,1.9,9.3-2.2,16.8c-11.5,5.6-23.1,1.9-23.1,1.9s-5.4-2.6-6.5-16.2
								C208,215.2,226.6,211,234.2,216.2z"/>
							<path class="st1" d="M234.2,216.2c0.2,0.1,0.7,2.8,0.3,6.6c-9.8-7.9-21.7-0.8-30.9,3.5c-0.6-1.9-0.8-5.1-1.1-7.7
								C208.2,215.2,226.6,211,234.2,216.2z"/>
						</g>
						<path class="st2" d="M217.4,236.1c0,0-5,3.5-6.3,3.5c-0.2-1.6-0.7-2.5-0.7-2.5l-4.1,1.1c0-2.2,2-4.3,2-4.3
							S212.9,235.6,217.4,236.1z"/>
						<g>
							<g>
								<path d="M231.2,214.3c0,0,2.2,5,0.9,12.7c-1.3,7.7-4.7,9-4.7,9s-6.7,1.9-13.3-0.2c-5-3.7-6.7-11.9-3.9-18.3
									C216.5,213.1,225.1,212.8,231.2,214.3z"/>
								<linearGradient id="SVGID_1_" gradientUnits="userSpaceOnUse" x1="211.8793" y1="223.9486" x2="232.6369" y2="223.9486">
									<stop  offset="0" style="stop-color:#FFFFFF"/>
									<stop  offset="1" style="stop-color:#75008B"/>
								</linearGradient>
								<path class="st3" d="M227.7,214.6c0,0,5.6,8.6-1.5,19c-1.9,2.2-8.6,0.9-10.8,0.2c-3.2-3.2-5.4-14.9-1.1-19
									C220.4,212,226,212.8,227.7,214.6z"/>
								<path class="st4" d="M213.1,228.3c0.7,5.8,4.1,6.5,8,6.5s6.9-2.9,6.9-6.5s-3.1-6.5-6.9-6.5S212.7,224.7,213.1,228.3z"/>
							</g>
							
								<ellipse transform="matrix(0.4319 -0.9019 0.9019 0.4319 -78.4896 317.3339)" class="st5" cx="212.7" cy="221" rx="4.7" ry="3.8"/>
							<ellipse class="st5" cx="228.7" cy="221.4" rx="1.8" ry="2.1"/>
						</g>
						<path class="st6" d="M196.1,210.9c2.2,2.2,5.6,3.6,7.4,4.3c-0.8-1.8-1.7-4.2-1.1-7.4c2.1,2.1,4.8,4.4,6.3,4.7
							c8.2-3.4,17.5-4.6,19.8-4.1c3.5,0.9,9.5,5.9,9.5,5.9s-1.1,0.3-1.7,1.3c-0.7,1,0.1,3.6,0.1,3.6s-5.3-4.9-9.2-5.7
							c-10.1-0.7-26,9.9-26,9.9s-3.4,0-9-2.5c1.9-0.3,6.5-2,7-2.5C197.5,216.5,196.5,213.7,196.1,210.9z"/>
						<path d="M238.5,210.7c0,0-6.2-5.1-9.9-5.3c-5.5-0.4-15,2.1-15,2.1s11.3-4.1,15.8-3.7C234.2,205.7,238.5,210.7,238.5,210.7z"/>
					</g>
					<g id="lefteye_25_">
						<g>
							<path class="st0" d="M265.8,216.2c-0.4,0.3-1.9,9.3,2.2,16.8c11.5,5.6,23.1,1.9,23.1,1.9s5.4-2.6,6.5-16.2
								C292,215.2,273.4,211,265.8,216.2z"/>
							<path class="st1" d="M265.8,216.2c-0.2,0.1-0.7,2.8-0.3,6.6c9.8-7.9,21.7-0.8,30.9,3.5c0.6-1.9,0.8-5.1,1.1-7.7
								C291.8,215.2,273.4,211,265.8,216.2z"/>
						</g>
						<path class="st2" d="M282.6,236.1c0,0,5,3.5,6.3,3.5c0.2-1.6,0.7-2.5,0.7-2.5l4.1,1.1c0-2.2-2-4.3-2-4.3
							S287.1,235.6,282.6,236.1z"/>
						<g>
							<g>
								<path d="M268.8,214.3c0,0-2.2,5-0.9,12.7c1.3,7.7,4.7,9,4.7,9s6.7,1.9,13.3-0.2c5-3.7,6.7-11.9,3.9-18.3
									C283.5,213.1,274.9,212.8,268.8,214.3z"/>
								<linearGradient id="SVGID_2_" gradientUnits="userSpaceOnUse" x1="270.2078" y1="223.9486" x2="290.965" y2="223.9486">
									<stop  offset="0" style="stop-color:#FFFFFF"/>
									<stop  offset="1" style="stop-color:#75008B"/>
								</linearGradient>
								<path class="st7" d="M272.3,214.6c0,0-5.6,8.6,1.5,19c1.9,2.2,8.6,0.9,10.8,0.2c3.2-3.2,5.4-14.9,1.1-19
									C279.6,212,274,212.8,272.3,214.6z"/>
								<path class="st4" d="M286.9,228.3c-0.7,5.8-4.1,6.5-8,6.5s-6.9-2.9-6.9-6.5s3.1-6.5,6.9-6.5S287.3,224.7,286.9,228.3z"/>
							</g>
							
								<ellipse transform="matrix(0.4319 -0.9019 0.9019 0.4319 -45.5165 369.6948)" class="st5" cx="270.7" cy="221" rx="4.7" ry="3.8"/>
							<ellipse class="st5" cx="286.8" cy="221.4" rx="1.8" ry="2.1"/>
						</g>
						<path class="st6" d="M303.9,210.9c-2.2,2.2-5.6,3.6-7.4,4.3c0.8-1.8,1.7-4.2,1.1-7.4c-2.1,2.1-4.8,4.4-6.3,4.7
							c-8.2-3.4-17.5-4.6-19.8-4.1c-3.5,0.9-9.5,5.9-9.5,5.9s1.1,0.3,1.7,1.3c0.7,1-0.1,3.6-0.1,3.6s5.3-4.9,9.2-5.7
							c10.1-0.7,26,9.9,26,9.9s3.4,0,9-2.5c-1.9-0.3-6.5-2-7-2.5C302.5,216.5,303.5,213.7,303.9,210.9z"/>
						<path d="M261.5,210.7c0,0,6.2-5.1,9.9-5.3c5.5-0.4,15,2.1,15,2.1s-11.3-4.1-15.8-3.7C265.8,205.7,261.5,210.7,261.5,210.7z"/>
					</g>
				</g>
			</g>
		</g>
		<g id="lcart_hige" transform="translate(0, 0), scale(1.15878,1.15878)">
		</g>
		<g id="lcart_glass_r" transform="translate(0, 0), scale(1.15878,1.15878)">
		</g>
		<g id="lcart_glassx_r" transform="translate(0, 0), scale(1.15878,1.15878)">
		</g>
		<g id="lcart_glove_f" transform="translate(0, 0), scale(1.15878,1.15878)">
		</g>
		<g id="lcart_glovex_f" transform="translate(0, 0), scale(1.15878,1.15878)">
		</g>
		<g id="lcart_earring" transform="translate(0, 0), scale(1.15878,1.15878)">
		</g>
		<g id="lcart_neck_f" transform="translate(0, 0), scale(1.15878,1.15878)">
		</g>
		<g id="lcart_glass_f" transform="translate(0, 0), scale(1.15878,1.15878)">
		</g>
		<g id="lcart_glassx_f" transform="translate(0, 0), scale(1.15878,1.15878)">
		</g>
		<g id="lcart_hairmae_r" transform="scale(1.1587799787521362,1.1587799787521362)">
		</g>
		<g id="lcart_momiage_r" transform="scale(1.1587799787521362,1.1587799787521362)">
			<g id="x001_10_" transform="translate(0, 0), scale(1, 1)">
			</g>
		</g>
		<g id="lcart_momiagex_r" transform="scale(1.1587799787521362,1.1587799787521362)">
			<g id="x001_11_" transform="translate(0, 0), scale(1, 1)">
			</g>
		</g>
		<g id="lcart_hairmae_f" transform="scale(1.1587799787521362,1.1587799787521362)">
			<g id="x001_12_" transform="translate(0, 0), scale(1, 1)">
			</g>
		</g>
		<g id="lcart_momiage_f" transform="scale(1.1587799787521362,1.1587799787521362)">
		</g>
		<g id="lcart_momiagex_f" transform="scale(1.1587799787521362,1.1587799787521362)">
		</g>
		<g id="lcart_mesh" transform="scale(1.1587799787521362,1.1587799787521362)">
			<g id="x001_13_" transform="translate(0, 0), scale(1, 1)">
			</g>
		</g>
		<g id="lcart_meshx" transform="scale(1.1587799787521362,1.1587799787521362)">
			<g id="x001_14_" transform="translate(0, 0), scale(1, 1)">
			</g>
		</g>
		<g id="lcart_eyeblow" transform="scale(1.1587799787521362,1.1587799787521362)">
			<g id="x002_2_" transform="translate(0, 0), scale(1, 1)">
				<g>
					<path d="M213.9,194.2c0,0,13.2-2.6,26,3C235.5,189.4,220.2,188.2,213.9,194.2z"/>
					<path d="M286.1,194.2c0,0-13.2-2.6-26,3C264.5,189.4,279.8,188.2,286.1,194.2z"/>
				</g>
			</g>
		</g>
		<g id="lcart_mantle_y" transform="translate(0, 0), scale(1.15878,1.15878)">
		</g>
		<g id="lcart_glass_y" transform="translate(0, 0), scale(1.15878,1.15878)">
		</g>
		<g id="lcart_glassx_y" transform="translate(0, 0), scale(1.15878,1.15878)">
		</g>
		<g id="lcart_animal_f" transform="translate(0, 0), scale(1.15878,1.15878)">
		</g>
		<g id="lcart_hat_f" transform="translate(0, 0), scale(1.15878,1.15878)">
		</g>
		<g id="lcart_hatx_f" transform="translate(0, 0), scale(1.15878,1.15878)">
		</g>
		<g id="lcart_ahoge" transform="translate(0, 0), scale(1.15878,1.15878)">
		</g>
		<g id="lcart_base_f" transform="translate(0, 0), scale(1.15878,1.15878)">
		</g>
		<g id="lcart_left" transform="translate(0, 0), scale(1.15878,1.15878)">
		</g>
		<g id="lcart_right" transform="translate(0, 0), scale(1.15878,1.15878)">
		</g>
		<g id="lcart_wing_f" transform="translate(0, 0), scale(1.15878,1.15878)">
		</g>
		<g id="lcart_wingx_f" transform="translate(0, 0), scale(1.15878,1.15878)">
		</g>
		<g id="lcart_wingx2_f" transform="translate(0, 0), scale(1.15878,1.15878)">
		</g>
		<g id="lcart_deco_f" transform="translate(0, 0), scale(1.15878,1.15878)">
		</g>
		<g id="lcart_decox_f" transform="translate(0, 0), scale(1.15878,1.15878)">
		</g>
		<g id="lcart_decox2_f" transform="translate(0, 0), scale(1.15878,1.15878)">
		</g>
		<g id="lcart_option" transform="translate(0, 0), scale(1.15878,1.15878)">
		</g>
	</g>
</g>
</svg>
