<?xml version="1.0" encoding="utf-8"?>
<!-- Generator: Adobe Illustrator 24.1.2, SVG Export Plug-In . SVG Version: 6.00 Build 0)  -->
<svg version="1.1" id="chaSvgSave" xmlns="http://www.w3.org/2000/svg" xmlns:xlink="http://www.w3.org/1999/xlink" x="0px" y="0px"
	 viewBox="0 0 651 651" style="enable-background:new 0 0 651 651;" xml:space="preserve">
<g id="chaSvgClip" transform="translate(35.80500000000001,35.80500000000001), scale(1,1)">
	<g id="chaSvgMake" transform="">
		<g id="lcart_chara" transform="translate(0, 0), scale(1.15878,1.15878)">
		</g>
		<g id="lcart_deco_y" transform="translate(0, 0), scale(1.15878,1.15878)">
		</g>
		<g id="lcart_decox_y" transform="translate(0, 0), scale(1.15878,1.15878)">
		</g>
		<g id="lcart_decox2_y" transform="translate(0, 0), scale(1.15878,1.15878)">
		</g>
		<g id="lcart_wing_r" transform="translate(0, 0), scale(1.15878,1.15878)">
		</g>
		<g id="lcart_wingx_r" transform="translate(0, 0), scale(1.15878,1.15878)">
		</g>
		<g id="lcart_wingx2_r" transform="translate(0, 0), scale(1.15878,1.15878)">
		</g>
		<g id="lcart_hat_r" transform="translate(0, 0), scale(1.15878,1.15878)">
		</g>
		<g id="lcart_hatx_r" transform="translate(0, 0), scale(1.15878,1.15878)">
		</g>
		<g id="lcart_hairyoko" transform="scale(1.1587799787521362,1.1587799787521362)">
			<g id="x001" transform="translate(0, 0), scale(1, 1)">
			</g>
		</g>
		<g id="lcart_neck_r" transform="translate(0, 0), scale(1.15878,1.15878)">
		</g>
		<g id="lcart_outer_r" transform="translate(0, 0), scale(1.15878,1.15878)">
		</g>
		<g id="lcart_hairushiro" transform="scale(1.1587799787521362,1.1587799787521362)">
			<g id="x001_1_" transform="translate(0, 0), scale(1, 1)">
			</g>
		</g>
		<g id="lcart_mantle_r" transform="translate(0, 0), scale(1.15878,1.15878)">
		</g>
		<g id="lcart_deco_r" transform="translate(0, 0), scale(1.15878,1.15878)">
		</g>
		<g id="lcart_decox_r" transform="translate(0, 0), scale(1.15878,1.15878)">
		</g>
		<g id="lcart_decox2_r" transform="translate(0, 0), scale(1.15878,1.15878)">
		</g>
		<g id="lcart_sleeve2_r" transform="translate(0, 0), scale(1.15878,1.15878)">
		</g>
		<g id="lcart_sleeve_r" transform="translate(0, 0), scale(1.15878,1.15878)">
		</g>
		<g id="lcart_onep_r" transform="translate(0, 0), scale(1.15878,1.15878)">
		</g>
		<g id="lcart_topsx_r" transform="translate(0, 0), scale(1.15878,1.15878)">
		</g>
		<g id="lcart_tops_r" transform="translate(0, 0), scale(1.15878,1.15878)">
		</g>
		<g id="lcart_bottoms_r" transform="scale(1.1587799787521362,1.1587799787521362)">
		</g>
		<g id="lcart_bodypaint" transform="scale(1.1587799787521362,1.1587799787521362)">
			<g id="x001_3_" transform="translate(0, 0), scale(1, 1)">
			</g>
		</g>
		<g id="lcart_socks_r" transform="translate(0, 0), scale(1.15878,1.15878)">
		</g>
		<g id="lcart_shoes_f" transform="translate(0, 0), scale(1.15878,1.15878)">
		</g>
		<g id="lcart_socks_f" transform="translate(0, 0), scale(1.15878,1.15878)">
		</g>
		<g id="lcart_shoes_r" transform="translate(0, 0), scale(1.15878,1.15878)">
		</g>
		<g id="lcart_face_r" transform="translate(0, 0), scale(1.15878,1.15878)">
		</g>
		<g id="lcart_glove_r" transform="translate(0, 0), scale(1.15878,1.15878)">
		</g>
		<g id="lcart_glovex_r" transform="translate(0, 0), scale(1.15878,1.15878)">
		</g>
		<g id="lcart_sleeve_f" transform="translate(0, 0), scale(1.15878,1.15878)">
		</g>
		<g id="lcart_sleeve2_f" transform="translate(0, 0), scale(1.15878,1.15878)">
		</g>
		<g id="lcart_belt_r" transform="translate(0, 0), scale(1.15878,1.15878)">
		</g>
		<g id="lcart_inner" transform="translate(0, 0), scale(1.15878,1.15878)">
		</g>
		<g id="lcart_bottoms_f" transform="scale(1.1587799787521362,1.1587799787521362)">
			<g id="x001_4_" transform="translate(0, 0), scale(1, 1)">
			</g>
		</g>
		<g id="lcart_tops_f" transform="translate(0, 0), scale(1.15878,1.15878)">
			<g id="x001_5_" transform="translate(0, 0), scale(1, 1)">
			</g>
		</g>
		<g id="lcart_topsx_f" transform="translate(0, 0), scale(1.15878,1.15878)">
		</g>
		<g id="lcart_bottoms_y" transform="scale(1.1587799787521362,1.1587799787521362)">
		</g>
		<g id="lcart_onep_f" transform="translate(0, 0), scale(1.15878,1.15878)">
		</g>
		<g id="lcart_belt_f" transform="translate(0, 0), scale(1.15878,1.15878)">
		</g>
		<g id="lcart_outer_f" transform="translate(0, 0), scale(1.15878,1.15878)">
		</g>
		<g id="lcart_mantle_f" transform="translate(0, 0), scale(1.15878,1.15878)">
			<g id="x001_6_" transform="translate(0, 0), scale(1, 1)">
			</g>
		</g>
		<g id="lcart_animal_r" transform="translate(0, 0), scale(1.15878,1.15878)">
		</g>
		<g id="lcart_ear" transform="scale(1.1587799787521362,1.1587799787521362)">
			<g id="x001_7_" transform="translate(0, 0), scale(1, 1)">
			</g>
		</g>
		<g id="lcart_neck_y" transform="translate(0, 0), scale(1.15878,1.15878)">
		</g>
		<g id="lcart_facepaint" transform="scale(1.1587799787521362,1.1587799787521362)">
			<g id="x001_8_" transform="translate(0, 0), scale(1, 1)">
			</g>
		</g>
		<g id="lcart_eye" transform="scale(1.1587799787521362,1.1587799787521362)">
			<g id="x124" transform="translate(0, 0) scale(1,1)">
				<g>
					<g>
						<path d="M237.9,225.8c0,0-4.5-4.5-8-4.9c-3.5-0.4-19.8-3-25.2,0.2c3.7,2.6,5.4,4.9,5.4,4.9s21.1,0.7,24.1,1.7
							C236.2,227.3,237.9,225.8,237.9,225.8z"/>
						<path d="M237.3,219.9c0,0-7.7-2.8-15.9-4.9C225.9,213.1,234.7,216.5,237.3,219.9z"/>
					</g>
					<g id="lefteye_78_">
						<path d="M262.1,225.8c0,0,4.5-4.5,8-4.9c3.5-0.4,19.8-3,25.2,0.2c-3.7,2.6-5.4,4.9-5.4,4.9s-21.1,0.7-24.1,1.7
							C263.8,227.3,262.1,225.8,262.1,225.8z"/>
						<path d="M262.7,219.9c0,0,7.7-2.8,15.9-4.9C274.1,213.1,265.3,216.5,262.7,219.9z"/>
					</g>
				</g>
			</g>
		</g>
		<g id="lcart_hige" transform="translate(0, 0), scale(1.15878,1.15878)">
		</g>
		<g id="lcart_glass_r" transform="translate(0, 0), scale(1.15878,1.15878)">
		</g>
		<g id="lcart_glassx_r" transform="translate(0, 0), scale(1.15878,1.15878)">
		</g>
		<g id="lcart_glove_f" transform="translate(0, 0), scale(1.15878,1.15878)">
		</g>
		<g id="lcart_glovex_f" transform="translate(0, 0), scale(1.15878,1.15878)">
		</g>
		<g id="lcart_earring" transform="translate(0, 0), scale(1.15878,1.15878)">
		</g>
		<g id="lcart_neck_f" transform="translate(0, 0), scale(1.15878,1.15878)">
		</g>
		<g id="lcart_glass_f" transform="translate(0, 0), scale(1.15878,1.15878)">
		</g>
		<g id="lcart_glassx_f" transform="translate(0, 0), scale(1.15878,1.15878)">
		</g>
		<g id="lcart_hairmae_r" transform="scale(1.1587799787521362,1.1587799787521362)">
		</g>
		<g id="lcart_momiage_r" transform="scale(1.1587799787521362,1.1587799787521362)">
			<g id="x001_10_" transform="translate(0, 0), scale(1, 1)">
			</g>
		</g>
		<g id="lcart_momiagex_r" transform="scale(1.1587799787521362,1.1587799787521362)">
			<g id="x001_11_" transform="translate(0, 0), scale(1, 1)">
			</g>
		</g>
		<g id="lcart_hairmae_f" transform="scale(1.1587799787521362,1.1587799787521362)">
			<g id="x001_12_" transform="translate(0, 0), scale(1, 1)">
			</g>
		</g>
		<g id="lcart_momiage_f" transform="scale(1.1587799787521362,1.1587799787521362)">
		</g>
		<g id="lcart_momiagex_f" transform="scale(1.1587799787521362,1.1587799787521362)">
		</g>
		<g id="lcart_mesh" transform="scale(1.1587799787521362,1.1587799787521362)">
			<g id="x001_13_" transform="translate(0, 0), scale(1, 1)">
			</g>
		</g>
		<g id="lcart_meshx" transform="scale(1.1587799787521362,1.1587799787521362)">
			<g id="x001_14_" transform="translate(0, 0), scale(1, 1)">
			</g>
		</g>
		<g id="lcart_eyeblow" transform="scale(1.1587799787521362,1.1587799787521362)">
			<g id="x002_2_" transform="translate(0, 0), scale(1, 1)">
				<g>
					<path d="M213.9,194.2c0,0,13.2-2.6,26,3C235.5,189.4,220.2,188.2,213.9,194.2z"/>
					<path d="M286.1,194.2c0,0-13.2-2.6-26,3C264.5,189.4,279.8,188.2,286.1,194.2z"/>
				</g>
			</g>
		</g>
		<g id="lcart_mantle_y" transform="translate(0, 0), scale(1.15878,1.15878)">
		</g>
		<g id="lcart_glass_y" transform="translate(0, 0), scale(1.15878,1.15878)">
		</g>
		<g id="lcart_glassx_y" transform="translate(0, 0), scale(1.15878,1.15878)">
		</g>
		<g id="lcart_animal_f" transform="translate(0, 0), scale(1.15878,1.15878)">
		</g>
		<g id="lcart_hat_f" transform="translate(0, 0), scale(1.15878,1.15878)">
		</g>
		<g id="lcart_hatx_f" transform="translate(0, 0), scale(1.15878,1.15878)">
		</g>
		<g id="lcart_ahoge" transform="translate(0, 0), scale(1.15878,1.15878)">
		</g>
		<g id="lcart_base_f" transform="translate(0, 0), scale(1.15878,1.15878)">
		</g>
		<g id="lcart_left" transform="translate(0, 0), scale(1.15878,1.15878)">
		</g>
		<g id="lcart_right" transform="translate(0, 0), scale(1.15878,1.15878)">
		</g>
		<g id="lcart_wing_f" transform="translate(0, 0), scale(1.15878,1.15878)">
		</g>
		<g id="lcart_wingx_f" transform="translate(0, 0), scale(1.15878,1.15878)">
		</g>
		<g id="lcart_wingx2_f" transform="translate(0, 0), scale(1.15878,1.15878)">
		</g>
		<g id="lcart_deco_f" transform="translate(0, 0), scale(1.15878,1.15878)">
		</g>
		<g id="lcart_decox_f" transform="translate(0, 0), scale(1.15878,1.15878)">
		</g>
		<g id="lcart_decox2_f" transform="translate(0, 0), scale(1.15878,1.15878)">
		</g>
		<g id="lcart_option" transform="translate(0, 0), scale(1.15878,1.15878)">
		</g>
	</g>
</g>
</svg>
